<svg width="900" height="960" viewBox="0 0 900 960" fill="none" xmlns="http://www.w3.org/2000/svg">
  <rect width="900" height="960" rx="44" fill="#D9D4CD"/>
  <rect width="900" height="960" rx="44" fill="url(#paint0_linear)"/>
  <circle cx="692" cy="234" r="180" fill="#F6EFE8" fill-opacity="0.78"/>
  <path d="M490 894C490 737.146 595.146 610 752 610V894H490Z" fill="#B28B67" fill-opacity="0.78"/>
  <path d="M278 476C278 337.377 390.377 225 529 225C667.623 225 780 337.377 780 476V893H278V476Z" fill="#2B2A2E" fill-opacity="0.95"/>
  <circle cx="530" cy="313" r="102" fill="#E8C9AD"/>
  <path d="M393 401C393 362.892 423.892 332 462 332H600C638.108 332 669 362.892 669 401V487H393V401Z" fill="#F1E5D7"/>
  <path d="M350 892V525C350 479.713 386.713 443 432 443H626C671.287 443 708 479.713 708 525V892H350Z" fill="#F8F5F0"/>
  <path d="M339 290C362 210 427 158 526 158C609 158 661 187 706 250C661 212 617 198 574 208C512 222 475 289 404 299C379 302 357 299 339 290Z" fill="#1E1D21"/>
  <defs>
    <linearGradient id="paint0_linear" x1="132" y1="74" x2="794" y2="898" gradientUnits="userSpaceOnUse">
      <stop stop-color="#F2ECE6"/>
      <stop offset="1" stop-color="#C7B9A8"/>
    </linearGradient>
  </defs>
</svg>
