<svg width="1200" height="900" viewBox="0 0 1200 900" fill="none" xmlns="http://www.w3.org/2000/svg">
  <rect width="1200" height="900" fill="#1B1B1D"/>
  <rect x="180" y="86" width="770" height="720" rx="18" fill="#F2EDE5"/>
  <rect x="220" y="126" width="690" height="640" rx="12" fill="#E4D4C1"/>
  <circle cx="608" cy="320" r="126" fill="#F1D0AE"/>
  <path d="M416 724V462C416 356.513 501.513 271 607 271C712.487 271 798 356.513 798 462V724H416Z" fill="#131315"/>
  <path d="M468 724V516C468 439.784 529.784 378 606 378C682.216 378 744 439.784 744 516V724H468Z" fill="#F8F5F0"/>
  <path d="M468 214C504 170 548 148 611 148C690 148 748 176 786 232C728 206 674 197 622 204C561 213 516 233 468 214Z" fill="#111214"/>
  <rect x="94" y="98" width="64" height="64" rx="14" fill="#2F76FF"/>
  <path d="M116 130H136" stroke="#F5F8FF" stroke-width="7" stroke-linecap="round"/>
  <path d="M126 120V140" stroke="#F5F8FF" stroke-width="7" stroke-linecap="round"/>
  <rect x="980" y="164" width="104" height="104" rx="18" fill="#F0C759"/>
  <path d="M1008 210H1056" stroke="#141518" stroke-width="10" stroke-linecap="round"/>
  <path d="M1020 228L1043 185L1066 228" stroke="#141518" stroke-width="10" stroke-linecap="round" stroke-linejoin="round"/>
</svg>
