<svg width="900" height="1100" viewBox="0 0 900 1100" fill="none" xmlns="http://www.w3.org/2000/svg">
  <rect width="900" height="1100" rx="44" fill="#191919"/>
  <rect width="900" height="1100" rx="44" fill="url(#paint0_linear)" fill-opacity="0.92"/>
  <circle cx="666" cy="292" r="212" fill="#F3C995" fill-opacity="0.28"/>
  <path d="M226 996V612C226 486.073 328.073 384 454 384C579.927 384 682 486.073 682 612V996H226Z" fill="#D9B487"/>
  <path d="M266 994V655C266 551.171 350.171 467 454 467C557.829 467 642 551.171 642 655V994H266Z" fill="#202022"/>
  <circle cx="454" cy="338" r="126" fill="#E6C39A"/>
  <path d="M302 184C340 122 402 90 485 90C573 90 640 132 681 202C625 167 567 153 505 162C442 172 381 203 302 184Z" fill="#09090A"/>
  <rect x="124" y="824" width="220" height="82" rx="24" fill="#0F0F10" fill-opacity="0.58"/>
  <text x="164" y="874" fill="#F8E8D5" font-family="Arial, Helvetica, sans-serif" font-size="44" font-weight="700">PLACEHOLDER</text>
  <defs>
    <linearGradient id="paint0_linear" x1="110" y1="102" x2="734" y2="1016" gradientUnits="userSpaceOnUse">
      <stop stop-color="#312E2B"/>
      <stop offset="1" stop-color="#8B6848"/>
    </linearGradient>
  </defs>
</svg>
