<svg width="720" height="420" viewBox="0 0 720 420" fill="none" xmlns="http://www.w3.org/2000/svg">
  <rect width="720" height="420" rx="32" fill="#231F20"/>
  <rect width="720" height="420" rx="32" fill="url(#paint0_linear)" fill-opacity="0.92"/>
  <circle cx="562" cy="138" r="112" fill="#E87A7A" fill-opacity="0.2"/>
  <path d="M200 364V224C200 149.337 262.337 87 337 87C411.663 87 474 149.337 474 224V364H200Z" fill="#161214"/>
  <circle cx="337" cy="150" r="74" fill="#E1BEA2"/>
  <path d="M248 72C286 34 326 18 378 18C432 18 476 36 506 80C454 58 408 48 370 54C328 60 288 76 248 72Z" fill="#0E0B0C"/>
  <defs>
    <linearGradient id="paint0_linear" x1="68" y1="54" x2="642" y2="360" gradientUnits="userSpaceOnUse">
      <stop stop-color="#2F2527"/>
      <stop offset="1" stop-color="#8A4D4C"/>
    </linearGradient>
  </defs>
</svg>
