<svg width="367" height="59" viewBox="0 0 367 59" fill="none" xmlns="http://www.w3.org/2000/svg">
<path d="M135.135 21.5052C132.627 21.5052 130.815 22.2011 129.7 23.5929C128.583 24.9848 128.027 26.8888 128.027 29.3043C128.027 30.4779 128.164 31.542 128.44 32.4965C128.717 33.4511 129.13 34.2734 129.683 34.9634C130.235 35.6542 130.925 36.1884 131.753 36.5684C132.581 36.9483 133.547 37.1379 134.652 37.1379C135.25 37.1379 135.762 37.1261 136.188 37.1034C136.614 37.0806 136.987 37.0343 137.309 36.9652V29.3641C137.309 28.9691 137.63 28.6488 138.025 28.6488H141.978C142.373 28.6488 142.693 28.9691 142.693 29.3641V39.9769C142.693 40.2929 142.49 40.5664 142.189 40.6619C141.554 40.8631 140.686 41.0741 139.587 41.2957C138.16 41.5838 136.4 41.727 134.307 41.727C132.512 41.727 130.884 41.4515 129.423 40.8988C127.963 40.347 126.715 39.5424 125.679 38.4834C124.644 37.426 123.844 36.126 123.281 34.5843C122.717 33.0433 122.436 31.2833 122.436 29.3043C122.436 27.3025 122.747 25.5316 123.367 23.9898C123.988 22.4488 124.839 21.1429 125.921 20.073C127.002 19.003 128.273 18.1925 129.734 17.6398C131.195 17.088 132.754 16.8116 134.41 16.8116C135.538 16.8116 136.555 16.8866 137.464 17.0366C138.373 17.1865 139.155 17.3584 139.811 17.5539C140.467 17.7493 141.007 17.9507 141.433 18.158C141.858 18.3652 142.163 18.5261 142.348 18.6407L141.064 22.207C140.92 22.6065 140.47 22.7807 140.082 22.6076C139.526 22.3594 138.918 22.1359 138.258 21.9366C137.303 21.6493 136.262 21.5052 135.135 21.5052Z" fill="white"/>
<path d="M163.674 37.3695V40.5635C163.674 40.9585 163.354 41.2788 162.959 41.2788H148.412C148.017 41.2788 147.697 40.9585 147.697 40.5635V18.0796C147.697 17.6845 148.017 17.3643 148.412 17.3643H152.365C152.76 17.3643 153.08 17.6845 153.08 18.0796V35.939C153.08 36.334 153.4 36.6543 153.795 36.6543H162.959C163.354 36.6543 163.674 36.9745 163.674 37.3695Z" fill="white"/>
<path d="M189.21 29.3043C189.21 31.3524 188.905 33.152 188.296 34.7048C187.686 36.2575 186.852 37.5575 185.794 38.6047C184.736 39.6511 183.476 40.4396 182.015 40.9679C180.554 41.497 178.984 41.7616 177.305 41.7616C175.671 41.7616 174.13 41.497 172.681 40.9679C171.231 40.4396 169.966 39.6511 168.885 38.6047C167.803 37.5575 166.952 36.2575 166.331 34.7048C165.71 33.152 165.399 31.3524 165.399 29.3043C165.399 27.257 165.721 25.4566 166.366 23.9038C167.009 22.3503 167.878 21.0452 168.971 19.987C170.063 18.9288 171.329 18.1352 172.767 17.6053C174.204 17.077 175.717 16.8116 177.305 16.8116C178.938 16.8116 180.48 17.077 181.929 17.6053C183.378 18.1352 184.644 18.9288 185.725 19.987C186.806 21.0452 187.657 22.3503 188.278 23.9038C188.9 25.4566 189.21 27.257 189.21 29.3043ZM170.956 29.3043C170.956 30.4779 171.099 31.5361 171.387 32.4788C171.674 33.4224 172.088 34.2338 172.629 34.912C173.169 35.591 173.831 36.1142 174.613 36.4824C175.395 36.8506 176.292 37.0343 177.305 37.0343C178.294 37.0343 179.186 36.8506 179.98 36.4824C180.773 36.1142 181.44 35.591 181.981 34.912C182.522 34.2338 182.935 33.4224 183.223 32.4788C183.511 31.5361 183.655 30.4779 183.655 29.3043C183.655 28.1307 183.511 27.0674 183.223 26.112C182.935 25.1575 182.522 24.3411 181.981 23.662C181.44 22.9838 180.773 22.4598 179.98 22.0916C179.186 21.7243 178.294 21.5398 177.305 21.5398C176.292 21.5398 175.395 21.7293 174.613 22.1093C173.831 22.4884 173.169 23.0184 172.629 23.6966C172.088 24.3756 171.674 25.192 171.387 26.1466C171.099 27.1011 170.956 28.1543 170.956 29.3043Z" fill="white"/>
<path d="M201.668 41.5897C200.356 41.5897 199.051 41.5492 197.752 41.4683C196.634 41.3988 195.477 41.2494 194.282 41.0182C193.945 40.9529 193.697 40.6501 193.697 40.3065V18.315C193.697 17.9652 193.941 17.6622 194.286 17.6052C195.227 17.4495 196.238 17.3285 197.32 17.243C198.631 17.1394 199.85 17.088 200.977 17.088C202.496 17.088 203.893 17.1975 205.17 17.4157C206.448 17.6348 207.546 18.0088 208.466 18.537C209.386 19.067 210.105 19.7621 210.623 20.6248C211.141 21.4875 211.399 22.5524 211.399 23.817C211.399 25.3598 210.799 26.6392 209.598 27.6562C209.211 27.9839 209.275 28.5865 209.721 28.8268C210.661 29.3326 211.335 29.952 211.744 30.6843C212.296 31.6742 212.573 32.7897 212.573 34.0316C212.573 36.5397 211.658 38.4261 209.83 39.6915C208.001 40.9569 205.279 41.5897 201.668 41.5897ZM198.942 26.0354C198.942 26.4304 199.262 26.7506 199.657 26.7506H201.565C203.221 26.7506 204.405 26.5383 205.119 26.112C205.832 25.6865 206.188 25.0024 206.188 24.0588C206.188 23.0925 205.82 22.4143 205.085 22.0225C204.347 21.6316 203.266 21.4361 201.84 21.4361C201.38 21.4361 200.885 21.442 200.356 21.453C199.827 21.4656 199.356 21.4934 198.942 21.5397V26.0354ZM199.657 30.857C199.262 30.857 198.942 31.1772 198.942 31.5723V37.0342C199.333 37.0806 199.758 37.1151 200.218 37.1379C200.678 37.1606 201.185 37.1724 201.737 37.1724C203.347 37.1724 204.647 36.9424 205.636 36.4824C206.625 36.0224 207.12 35.1706 207.12 33.9288C207.12 32.8242 206.706 32.0365 205.878 31.5647C205.05 31.0929 203.865 30.857 202.324 30.857H199.657Z" fill="white"/>
<path d="M233.104 41.2788C232.795 41.2788 232.523 41.0843 232.428 40.7904C232.207 40.1145 231.974 39.4238 231.727 38.7184C231.477 38.0034 231.227 37.29 230.979 36.5797C230.879 36.2928 230.609 36.1024 230.305 36.1024H221.981C221.676 36.1024 221.406 36.2948 221.306 36.5829C221.059 37.2959 220.811 38.0098 220.564 38.726C220.32 39.4299 220.09 40.1181 219.873 40.7892C219.778 41.084 219.506 41.2788 219.197 41.2788H215.136C214.643 41.2788 214.3 40.7824 214.463 40.3172C215.24 38.1074 215.981 36.0469 216.687 34.1352C217.495 31.9497 218.285 29.8906 219.058 27.9579C219.831 26.0261 220.593 24.1911 221.342 22.4539C222.032 20.8588 222.745 19.2971 223.483 17.7695C223.603 17.5205 223.856 17.3643 224.132 17.3643H228.326C228.605 17.3643 228.857 17.522 228.976 17.7737C229.696 19.2999 230.406 20.8602 231.105 22.4539C231.868 24.1911 232.637 26.0261 233.411 27.9579C234.185 29.8906 234.977 31.9497 235.785 34.1352C236.493 36.0467 237.235 38.107 238.014 40.3166C238.178 40.7819 237.835 41.2788 237.341 41.2788H233.104ZM226.118 22.7816C225.997 23.1295 225.822 23.6022 225.59 24.1995C225.359 24.7977 225.096 25.4885 224.801 26.2721C224.505 27.0548 224.175 27.9175 223.809 28.8602C223.56 29.5028 223.309 30.1666 223.054 30.8517C222.88 31.3187 223.226 31.8233 223.724 31.8233H228.522C229.016 31.8233 229.36 31.3259 229.194 30.8603C228.948 30.1687 228.707 29.499 228.472 28.851C228.129 27.9057 227.803 27.0413 227.494 26.2578C227.185 25.4742 226.915 24.7842 226.682 24.1869C226.449 23.5896 226.261 23.122 226.118 22.7816Z" fill="white"/>
<path d="M257.4 37.3695V40.5635C257.4 40.9585 257.079 41.2788 256.684 41.2788H242.138C241.743 41.2788 241.422 40.9585 241.422 40.5635V18.0796C241.422 17.6845 241.743 17.3643 242.138 17.3643H246.091C246.486 17.3643 246.806 17.6845 246.806 18.0796V35.939C246.806 36.334 247.126 36.6543 247.521 36.6543H256.684C257.079 36.6543 257.4 36.9745 257.4 37.3695Z" fill="white"/>
<path d="M280.796 21.5052C278.289 21.5052 276.477 22.2011 275.361 23.5929C274.245 24.9848 273.688 26.8888 273.688 29.3043C273.688 30.4779 273.825 31.542 274.101 32.4965C274.378 33.4511 274.792 34.2734 275.344 34.9634C275.896 35.6542 276.586 36.1884 277.414 36.5684C278.242 36.9483 279.209 37.1379 280.313 37.1379C280.912 37.1379 281.423 37.1261 281.849 37.1034C282.275 37.0806 282.648 37.0343 282.971 36.9652V29.3641C282.971 28.9691 283.291 28.6488 283.686 28.6488H287.639C288.034 28.6488 288.354 28.9691 288.354 29.3641V39.9769C288.354 40.2929 288.151 40.5664 287.85 40.6619C287.215 40.8631 286.348 41.0741 285.248 41.2957C283.822 41.5838 282.062 41.727 279.968 41.727C278.173 41.727 276.546 41.4515 275.085 40.8988C273.624 40.347 272.376 39.5424 271.341 38.4834C270.305 37.426 269.506 36.126 268.943 34.5843C268.378 33.0433 268.097 31.2833 268.097 29.3043C268.097 27.3025 268.408 25.5316 269.029 23.9898C269.65 22.4488 270.501 21.1429 271.583 20.073C272.664 19.003 273.935 18.1925 275.396 17.6398C276.857 17.088 278.415 16.8116 280.072 16.8116C281.199 16.8116 282.217 16.8866 283.126 17.0366C284.034 17.1865 284.816 17.3584 285.472 17.5539C286.128 17.7493 286.669 17.9507 287.094 18.158C287.519 18.3652 287.824 18.5261 288.009 18.6407L286.725 22.207C286.581 22.6065 286.131 22.7807 285.743 22.6076C285.187 22.3594 284.579 22.1359 283.919 21.9366C282.965 21.6493 281.923 21.5052 280.796 21.5052Z" fill="white"/>
<path d="M309.92 41.2788C309.61 41.2788 309.339 41.0843 309.244 40.7904C309.023 40.1145 308.79 39.4238 308.543 38.7184C308.293 38.0034 308.043 37.29 307.795 36.5797C307.695 36.2928 307.424 36.1024 307.12 36.1024H298.797C298.492 36.1024 298.221 36.2948 298.122 36.5829C297.875 37.2959 297.628 38.0098 297.38 38.726C297.136 39.4299 296.906 40.1181 296.689 40.7892C296.594 41.084 296.322 41.2788 296.012 41.2788H291.952C291.459 41.2788 291.116 40.7824 291.279 40.3172C292.056 38.1074 292.797 36.0469 293.503 34.1352C294.31 31.9497 295.101 29.8906 295.874 27.9579C296.647 26.0261 297.408 24.1911 298.158 22.4539C298.848 20.8588 299.561 19.2971 300.299 17.7695C300.419 17.5205 300.672 17.3643 300.948 17.3643H305.142C305.42 17.3643 305.673 17.522 305.792 17.7737C306.512 19.2999 307.221 20.8602 307.921 22.4539C308.684 24.1911 309.453 26.0261 310.227 27.9579C311.001 29.8906 311.792 31.9497 312.601 34.1352C313.308 36.0467 314.051 38.107 314.829 40.3166C314.993 40.7819 314.651 41.2788 314.157 41.2788H309.92ZM302.934 22.7816C302.813 23.1295 302.638 23.6022 302.406 24.1995C302.175 24.7977 301.911 25.4885 301.617 26.2721C301.321 27.0548 300.991 27.9175 300.625 28.8602C300.376 29.5028 300.125 30.1666 299.87 30.8517C299.697 31.3187 300.042 31.8233 300.54 31.8233H305.338C305.832 31.8233 306.176 31.3259 306.01 30.8603C305.763 30.1687 305.523 29.499 305.287 28.851C304.945 27.9057 304.619 27.0413 304.31 26.2578C304.001 25.4742 303.731 24.7842 303.498 24.1869C303.265 23.5896 303.077 23.122 302.934 22.7816Z" fill="white"/>
<path d="M324.16 17.3643C324.423 17.3643 324.663 17.5011 324.787 17.7336C325.154 18.4211 325.567 19.2356 326.024 20.1766C326.566 21.2929 327.131 22.5002 327.719 23.8002C328.307 25.1002 328.89 26.4288 329.467 27.7861C329.801 28.5747 330.125 29.3363 330.437 30.0706C330.683 30.6515 331.503 30.6515 331.749 30.0706C332.061 29.3363 332.384 28.5747 332.72 27.7861C333.296 26.4288 333.878 25.1002 334.466 23.8002C335.054 22.5002 335.619 21.2929 336.162 20.1766C336.619 19.2357 337.032 18.4213 337.398 17.7339C337.522 17.5013 337.762 17.3643 338.026 17.3643H341.875C342.232 17.3643 342.536 17.6191 342.584 17.973C342.781 19.4022 342.966 20.9762 343.137 22.6957C343.333 24.6629 343.505 26.7102 343.654 28.8384C343.804 30.9665 343.941 33.0997 344.069 35.2397C344.179 37.1018 344.276 38.8675 344.36 40.5375C344.38 40.9462 344.053 41.2788 343.644 41.2788H339.845C339.459 41.2788 339.143 40.9815 339.131 40.5956C339.064 38.4615 338.979 36.159 338.875 33.6869C338.759 30.9497 338.587 28.1888 338.357 25.4043C337.941 26.3707 337.48 27.4406 336.973 28.6142C336.464 29.787 335.962 30.9606 335.466 32.1342C334.971 33.307 334.491 34.4284 334.03 35.4984C333.653 36.3743 333.321 37.1457 333.036 37.8136C332.923 38.0771 332.667 38.2424 332.38 38.2424H329.564C329.278 38.2424 329.022 38.0771 328.909 37.8136C328.624 37.1457 328.292 36.3743 327.915 35.4984C327.453 34.4284 326.974 33.307 326.477 32.1342C325.981 30.9606 325.479 29.787 324.972 28.6142C324.464 27.4406 324.002 26.3707 323.588 25.4043C323.357 28.1888 323.185 30.9497 323.07 33.6869C322.965 36.1588 322.88 38.4611 322.815 40.595C322.803 40.9812 322.487 41.2788 322.101 41.2788H318.301C317.892 41.2788 317.565 40.9462 317.585 40.5375C317.668 38.8675 317.766 37.1018 317.876 35.2397C318.002 33.0997 318.14 30.9665 318.29 28.8384C318.44 26.7102 318.612 24.6629 318.808 22.6957C318.978 20.9761 319.163 19.402 319.36 17.9728C319.409 17.619 319.712 17.3643 320.069 17.3643H324.16Z" fill="white"/>
<path d="M349.191 40.5635V18.0796C349.191 17.6845 349.512 17.3643 349.907 17.3643H364.627C365.022 17.3643 365.342 17.6845 365.342 18.0796V21.169C365.342 21.5641 365.022 21.8843 364.627 21.8843H355.29C354.895 21.8843 354.575 22.2046 354.575 22.5996V25.8626C354.575 26.2577 354.895 26.5779 355.29 26.5779H363.419C363.814 26.5779 364.134 26.8982 364.134 27.2932V30.2799C364.134 30.6749 363.814 30.9952 363.419 30.9952H355.29C354.895 30.9952 354.575 31.3154 354.575 31.7104V36.0426C354.575 36.4377 354.895 36.7579 355.29 36.7579H365.421C365.816 36.7579 366.136 37.0781 366.136 37.4732V40.5635C366.136 40.9585 365.816 41.2788 365.421 41.2788H349.907C349.512 41.2788 349.191 40.9585 349.191 40.5635Z" fill="white"/>
<path d="M229.355 58.0498C228.813 58.0498 228.343 57.9658 227.945 57.7989C227.546 57.6313 227.219 57.4019 226.964 57.1112C226.709 56.8206 226.52 56.4762 226.397 56.0769C226.273 55.6788 226.211 55.2481 226.211 54.7858V49.5861H227.371V54.655C227.371 55.4839 227.554 56.0851 227.921 56.4598C228.287 56.8346 228.765 57.0214 229.355 57.0214C229.65 57.0214 229.919 56.9758 230.162 56.8842C230.405 56.7926 230.614 56.6513 230.79 56.4598C230.965 56.2684 231.1 56.0232 231.196 55.7244C231.292 55.4255 231.34 55.0694 231.34 54.655V49.5861H232.499V54.7858C232.499 55.2481 232.438 55.6788 232.314 56.0769C232.19 56.4762 231.999 56.8206 231.74 57.1112C231.481 57.4019 231.154 57.6313 230.76 57.7989C230.365 57.9658 229.897 58.0498 229.355 58.0498Z" fill="white"/>
<path d="M240.174 57.8701C239.998 57.5759 239.797 57.2449 239.57 56.8778C239.343 56.5118 239.097 56.1306 238.835 55.7366C238.572 55.342 238.298 54.9416 238.016 54.5347C237.733 54.1285 237.452 53.7362 237.173 53.358C236.894 52.9792 236.623 52.6225 236.36 52.2875C236.097 51.953 235.854 51.6582 235.631 51.4032V57.8701H234.496V49.5861H235.416C235.79 49.9841 236.191 50.4488 236.617 50.9788C237.043 51.5088 237.466 52.0546 237.885 52.6167C238.303 53.1782 238.697 53.7304 239.068 54.2721C239.438 54.8138 239.751 55.2959 240.006 55.7185V49.5861H241.141V57.8701H240.174Z" fill="white"/>
<path d="M243.198 49.5861H244.358V57.8701H243.198V49.5861Z" fill="white"/>
<path d="M246.079 53.7222C246.079 53.013 246.184 52.3873 246.396 51.845C246.607 51.3033 246.894 50.8515 247.257 50.4885C247.619 50.126 248.042 49.8534 248.524 49.6695C249.006 49.4868 249.518 49.3946 250.059 49.3946C250.594 49.3946 251.098 49.4868 251.572 49.6695C252.046 49.8534 252.463 50.126 252.821 50.4885C253.18 50.8515 253.465 51.3033 253.676 51.845C253.887 52.3873 253.993 53.013 253.993 53.7222C253.993 54.432 253.887 55.0572 253.676 55.5994C253.465 56.1411 253.18 56.5929 252.821 56.956C252.463 57.3184 252.046 57.591 251.572 57.7743C251.098 57.9576 250.594 58.0498 250.059 58.0498C249.518 58.0498 249.006 57.9576 248.524 57.7743C248.042 57.591 247.619 57.3184 247.257 56.956C246.894 56.5929 246.607 56.1411 246.396 55.5994C246.184 55.0572 246.079 54.432 246.079 53.7222ZM247.299 53.7222C247.299 54.2242 247.362 54.6807 247.49 55.091C247.617 55.5013 247.798 55.8504 248.033 56.137C248.269 56.4236 248.555 56.6454 248.894 56.8007C249.233 56.9559 249.614 57.0336 250.036 57.0336C250.458 57.0336 250.837 56.9559 251.171 56.8007C251.507 56.6454 251.791 56.4236 252.026 56.137C252.261 55.8504 252.443 55.5013 252.57 55.091C252.697 54.6807 252.762 54.2242 252.762 53.7222C252.762 53.2202 252.697 52.7638 252.57 52.3534C252.443 51.9431 252.261 51.594 252.026 51.3074C251.791 51.0208 251.507 50.799 251.171 50.6437C250.837 50.4885 250.458 50.4108 250.036 50.4108C249.614 50.4108 249.233 50.4885 248.894 50.6437C248.555 50.799 248.269 51.0208 248.033 51.3074C247.798 51.594 247.617 51.9431 247.49 52.3534C247.362 52.7638 247.299 53.2202 247.299 53.7222Z" fill="white"/>
<path d="M261.393 57.8701C261.217 57.5759 261.016 57.2449 260.789 56.8778C260.562 56.5118 260.317 56.1306 260.054 55.7366C259.791 55.342 259.517 54.9416 259.235 54.5347C258.952 54.1285 258.671 53.7362 258.392 53.358C258.113 52.9792 257.842 52.6225 257.579 52.2875C257.316 51.953 257.073 51.6582 256.85 51.4032V57.8701H255.714V49.5861H256.634C257.009 49.9841 257.409 50.4488 257.836 50.9788C258.262 51.5088 258.685 52.0546 259.103 52.6167C259.521 53.1782 259.916 53.7304 260.287 54.2721C260.657 54.8138 260.97 55.2959 261.225 55.7185V49.5861H262.361V57.8701H261.393Z" fill="white"/>
<path d="M32.8016 8.11593C35.0427 8.11593 36.8595 6.29909 36.8595 4.05794C36.8595 1.81679 35.0427 0 32.8016 0C30.5604 0 28.7437 1.81679 28.7437 4.05794C28.7437 6.29909 30.5604 8.11593 32.8016 8.11593Z" fill="white"/>
<path d="M34.2112 51.5162L34.1295 51.0854C34.0737 50.7913 33.8168 50.5784 33.5174 50.5784H8.00421C6.64697 50.5784 5.43595 49.6054 5.26316 48.2592C5.05413 46.6305 6.32286 45.2371 7.91111 45.2371H21.5623C25.517 45.2371 28.7231 42.0312 28.7231 38.0764V36.9911C28.7231 35.0382 27.9403 33.2115 26.5504 31.8662C30.3946 28.7727 32.6666 24.0728 32.6666 19.1364C32.6666 9.74428 24.6979 2.17805 15.1663 2.84393C7.12048 3.40602 0.602919 9.92358 0.0408316 17.9694C-0.625053 27.501 6.94106 35.4699 16.3331 35.4699C17.5244 35.4699 18.7257 35.3359 19.9049 35.0714H21.5623C22.6229 35.0714 23.4827 35.9312 23.4827 36.9918V38.0764C23.4827 39.137 22.6229 39.9967 21.5623 39.9967H8.12058C3.69558 39.9967 -0.0727117 43.6175 0.00128083 48.0419C0.0732005 52.3423 3.59383 55.8185 7.91111 55.8185H35.7532C36.3294 55.8185 36.597 55.1037 36.1624 54.7254C35.6583 54.1952 34.7547 53.2537 34.2112 51.5162ZM27.4264 19.1364C27.4264 25.2532 22.4499 30.2295 16.3331 30.2295C10.2164 30.2295 5.24021 25.2532 5.24021 19.1364C5.24021 13.0196 10.2164 8.04343 16.3331 8.04343C22.4499 8.04343 27.4264 13.0196 27.4264 19.1364Z" fill="white"/>
<path d="M68.9896 8.11593C71.2307 8.11593 73.0475 6.29909 73.0475 4.05794C73.0475 1.81679 71.2307 0 68.9896 0C66.7484 0 64.9316 1.81679 64.9316 4.05794C64.9316 6.29909 66.7484 8.11593 68.9896 8.11593Z" fill="white"/>
<path d="M94.5418 47.5829C92.4971 47.5829 90.7408 48.8149 89.9676 50.5843H44.251C42.9272 50.5843 41.5772 49.5096 41.4461 48.1858C41.2757 46.5868 42.534 45.2367 44.0937 45.2367H57.7509C61.7092 45.2367 64.9074 42.0255 64.9074 38.0805V36.9926C64.9074 35.0397 64.1339 33.2178 62.7446 31.8678C66.5849 28.7746 68.8525 24.0693 68.8525 19.1411C68.8525 9.74349 60.8835 2.18092 51.3548 2.84938C43.2679 3.41296 36.7932 9.88771 36.2296 17.9746C35.5612 27.5033 43.1237 35.4721 52.5213 35.4721C53.714 35.4721 54.9199 35.3411 56.0864 35.0658H57.7509C58.8126 35.0658 59.6645 35.9309 59.6645 36.9926V38.0805C59.6645 39.1421 58.8126 39.994 57.7509 39.994H44.369C40.3583 39.994 36.7669 42.8775 36.2558 46.8619C35.6398 51.6852 39.3883 55.8139 44.0937 55.8139H90.7801C91.6845 56.8756 93.0345 57.544 94.5418 57.544C97.2942 57.544 99.5356 55.3159 99.5356 52.5635C99.5356 49.811 97.2942 47.5829 94.5418 47.5829ZM52.5213 30.2294C46.4004 30.2294 41.4329 25.2489 41.4329 19.1411C41.4329 13.0202 46.4004 8.03961 52.5213 8.03961C58.6422 8.03961 63.6097 13.0202 63.6097 19.1411C63.6097 25.2489 58.6422 30.2294 52.5213 30.2294ZM94.5418 55.3814C94.0831 55.3814 93.6374 55.2635 93.2573 55.0668C92.3529 54.595 91.7369 53.6513 91.7369 52.5635C91.7369 52.1965 91.8025 51.8557 91.9336 51.528C92.3399 50.4926 93.3622 49.7455 94.5418 49.7455C96.1015 49.7455 97.3598 51.0169 97.3598 52.5635C97.3598 54.1101 96.1015 55.3814 94.5418 55.3814Z" fill="white"/>
<path d="M71.7259 9.73364C71.3931 9.88171 71.3005 10.3109 71.5429 10.5828L71.6429 10.6947C72.2105 11.3317 72.511 12.1063 72.511 12.9348V33.9925C72.511 40.5161 77.8494 46.0271 84.372 45.9169C90.7098 45.8098 95.8323 40.6211 95.8323 34.2583V15.4185C95.8323 15.0743 95.5531 14.7954 95.2089 14.7954H91.2155C90.8713 14.7954 90.5922 15.0743 90.5922 15.4185V34.0721C90.5922 37.5251 87.944 40.5005 84.4952 40.6705C80.8085 40.8522 77.7509 37.9055 77.7509 34.2583V12.9348C77.7509 10.7864 76.9492 8.72539 75.4933 7.13126L75.3883 7.01639C75.1374 6.74195 74.6903 6.7989 74.5162 7.12748L74.4436 7.26456C73.8778 8.33254 72.9703 9.17994 71.866 9.67126L71.7259 9.73364Z" fill="white"/>
<path d="M18.1581 21.8947L17.1088 20.647C16.7039 20.1655 15.9626 20.1655 15.5577 20.647L14.5084 21.8947C14.3548 22.0773 14.2706 22.3083 14.2706 22.5469L14.0642 27.2682C14.0642 27.8838 14.5633 28.3829 15.179 28.3829H17.4875C18.1032 28.3829 18.6023 27.8838 18.6023 27.2682L18.3959 22.5469C18.3959 22.3083 18.3117 22.0773 18.1581 21.8947Z" fill="white"/>
<path d="M14.5084 16.3781L15.5577 17.6258C15.9626 18.1073 16.7039 18.1073 17.1088 17.6258L18.1581 16.3781C18.3117 16.1955 18.3959 15.9645 18.3959 15.7258L18.6023 11.0046C18.6023 10.3889 18.1032 9.88989 17.4875 9.88989H15.179C14.5633 9.88989 14.0642 10.3889 14.0642 11.0046L14.2706 15.7258C14.2706 15.9645 14.3548 16.1955 14.5084 16.3781Z" fill="white"/>
<path d="M13.575 20.9613L14.8227 19.912C15.3042 19.507 15.3042 18.7658 14.8227 18.3608L13.575 17.3115C13.3923 17.1579 13.1612 17.0737 12.9226 17.0737L8.20142 16.8674C7.58577 16.8674 7.08667 17.3665 7.08667 17.9821V20.2907C7.08667 20.9063 7.58577 21.4054 8.20142 21.4054L12.9226 21.1991C13.1612 21.1991 13.3923 21.1149 13.575 20.9613Z" fill="white"/>
<path d="M19.0915 17.3115L17.8438 18.3608C17.3623 18.7658 17.3623 19.507 17.8438 19.912L19.0915 20.9613C19.2742 21.1149 19.5052 21.1991 19.7439 21.1991L24.4651 21.4054C25.0807 21.4054 25.5798 20.9063 25.5798 20.2907V17.9821C25.5798 17.3665 25.0807 16.8674 24.4651 16.8674L19.7439 17.0737C19.5052 17.0737 19.2742 17.1579 19.0915 17.3115Z" fill="white"/>
<path d="M52.5214 16.8122C54.1352 16.8122 55.4433 15.504 55.4433 13.8902C55.4433 12.2765 54.1352 10.9683 52.5214 10.9683C50.9076 10.9683 49.5994 12.2765 49.5994 13.8902C49.5994 15.504 50.9076 16.8122 52.5214 16.8122Z" fill="#F7EA2F"/>
<path d="M52.5214 27.3046C54.1352 27.3046 55.4433 25.9964 55.4433 24.3826C55.4433 22.7689 54.1352 21.4607 52.5214 21.4607C50.9076 21.4607 49.5994 22.7689 49.5994 24.3826C49.5994 25.9964 50.9076 27.3046 52.5214 27.3046Z" fill="#36B24A"/>
<path d="M57.7677 22.0583C59.3815 22.0583 60.6896 20.7501 60.6896 19.1364C60.6896 17.5226 59.3815 16.2144 57.7677 16.2144C56.154 16.2144 54.8457 17.5226 54.8457 19.1364C54.8457 20.7501 56.154 22.0583 57.7677 22.0583Z" fill="#EA1F27"/>
<path d="M47.2751 22.0583C48.8888 22.0583 50.1969 20.7501 50.1969 19.1364C50.1969 17.5226 48.8888 16.2144 47.2751 16.2144C45.6613 16.2144 44.353 17.5226 44.353 19.1364C44.353 20.7501 45.6613 22.0583 47.2751 22.0583Z" fill="#1B75BA"/>
</svg>
