<svg width="654" height="444" viewBox="0 0 654 444" fill="none" xmlns="http://www.w3.org/2000/svg">
<g clip-path="url(#clip0_5_57)">
<path d="M91.3412 45.6722C91.7249 40.5569 91.0702 31.0774 92.8368 26.3784C93.7019 24.0776 95.8127 26.2636 97.1194 27.291C114.495 40.952 141.094 75.0742 152.971 94.1318C153.507 94.9909 156.072 98.8101 155.414 99.5209L110.087 68.8438C108.699 68.6922 109.188 68.9037 109.064 69.8585C108.119 77.1914 108.691 84.6943 107.701 92.0259C105.937 92.2326 104.573 90.942 103.293 89.9611C91.889 81.2187 76.2774 62.8205 66.8249 51.4507C58.2702 41.1606 35.689 12.6115 32.0532 1.01573C31.9439 0.667262 31.8659 -0.0960086 32.3808 0.0100104C47.2508 11.3765 61.1847 24.048 76.0269 35.4325C79.0429 37.7458 86.0442 43.6518 88.9123 45.0404C89.7391 45.4407 90.2998 45.9092 91.3412 45.6722Z" fill="white"/>
<path d="M69.5326 340.82C66.9125 340.482 64.6095 341.822 62.2576 342.747C42.3694 350.57 21.867 361.662 2.27647 370.695C1.64929 370.984 0.515165 372.173 0 371.145C4.24355 365.179 9.4314 359.619 14.6438 354.434C23.9685 345.159 34.2884 336.057 44.303 327.519C58.1476 315.714 72.9289 304.185 88.2819 294.474C89.129 295.385 88.3104 297.231 87.9704 298.253C86.9616 301.283 76.5059 321.883 77.7154 323.094C82.6568 321.208 87.6435 319.214 92.4853 317.081C102.442 312.695 116.243 304.408 126.082 301.597C130.98 300.197 129.094 303.604 127.147 306.074L72.6338 359.939C70.9383 361.675 69.5326 359.971 69.5326 358.201V340.82Z" fill="white"/>
<path d="M80.4356 135.655C80.3533 135.742 80.1747 137.557 80.8967 137.727L104.67 156.746C105.886 158.27 107.237 159.715 104.65 160.217C86.3498 153.957 68.2266 147.004 51.5748 137.074C50.8647 136.66 50.9298 134.697 51.2086 134.358C51.4685 134.042 57.2989 132.602 58.8711 131.465C59.7901 130.8 60.3196 130.779 59.6731 129.5C59.1396 128.444 52.6142 123.606 51.0704 122.417C42.6413 115.927 31.9473 109.984 24.2229 102.914C22.8898 101.694 20.6754 100.075 20.4589 98.1646C21.5935 97.1929 44.9628 106.859 48.1796 108.267C60.4449 113.635 77.8731 121.65 88.8257 128.967C89.9711 129.733 94.1659 131.771 92.0191 133.258C90.2506 134.482 80.8416 135.225 80.4356 135.655Z" fill="white"/>
<path d="M197.678 321.059L155.43 365.717C155.125 366.987 155.907 366.742 156.783 367.039C158.307 367.555 165.352 368.428 165.643 368.773C165.906 369.086 165.603 370.771 165.003 371.195C149.299 380.608 135.001 393.207 119.503 402.719C117.6 403.887 115.405 405.604 113.16 405.571C112.021 404.432 118.254 396.414 119.31 395.028C124.965 387.611 132.154 381.399 137.685 373.865C137.866 372.478 137.629 372.982 136.686 372.856C132.021 372.23 127.37 374.08 122.7 373.531C125.434 370.124 129.196 367.414 132.698 364.792C150.461 351.493 174.725 333.806 193.645 322.813C194.873 322.099 196.211 321.046 197.678 321.059Z" fill="white"/>
<path d="M66.8063 186.765C69.82 186.962 88.947 193.09 89.2975 194.62L88.1701 196.203L61.0149 193.585C60.6601 193.948 62.8291 195.977 62.961 196.063C64.1458 196.836 66.311 196.618 66.8059 198.353C57.5024 197.958 47.1524 199.184 38.0013 197.514C36.1437 197.175 34.6995 196.9 34.8799 194.755C35.1685 191.323 44.1178 191.328 40.5738 188.125L10.2785 175.479C7.95322 173.738 8.30839 172.097 11.2175 171.746C16.6888 171.087 28.8972 174.219 34.7789 175.516C45.8247 177.952 56.5941 181.437 67.5008 184.374L66.8063 186.765Z" fill="white"/>
<path d="M93.3868 245.396C94.0345 246.017 93.2289 247.385 92.2335 247.985C90.2393 249.188 79.8305 251.478 79.0743 252.216C77.0742 254.166 85.5942 254.437 86.4017 254.765C87.2615 255.115 88.4683 255.848 87.2658 256.649C85.8127 257.618 71.6904 261.645 69.7841 261.727C65.0645 261.929 69.5063 256.209 68.8481 255.621L16.6997 260.381C12.4686 260.147 7.90175 260.727 3.72534 260.418C2.98843 260.364 0.709688 260.359 0.702151 259.365C0.695231 258.453 13.2176 256.131 14.8602 255.815C25.5983 253.747 36.6636 251.904 47.4722 250.256C53.0233 249.41 91.6433 243.724 93.3868 245.396Z" fill="white"/>
<path d="M276.069 51.8082C278.118 52.1792 280.756 49.3356 281.847 51.8148C283.094 54.6462 280.698 71.2406 280.068 75.2391C279.66 77.8283 279.49 81.1707 277.769 83.1514C275.291 83.1785 274.313 65.8206 274.018 63.3956C272.727 62.8005 270.635 65.2449 269.944 64.7581C269.766 64.6334 268.099 61.1922 268.025 60.8702C266.46 54.0342 267.602 36.4167 268.729 29.14C269.208 26.0486 271.57 22.6002 273.95 26.3245C277.157 31.3455 275.572 45.717 276.069 51.8082Z" fill="white"/>
<path d="M245.389 87.9331C244.433 89.1723 243.872 86.9989 243.627 86.6536C240.818 82.6859 239.034 77.4416 237.204 72.9424C234.118 76.0616 233.535 74.8587 231.195 71.8015C225.341 64.1529 217.358 48.7831 213.453 39.7848C204.893 20.0606 214.345 33.3637 219.505 41.231C224.336 48.5977 228.542 56.361 232.791 64.072C234.079 65.7758 234.575 62.2705 235.553 62.043C236.107 61.9142 238.446 63.5819 238.859 64.1374C240.471 66.3055 246.256 86.8083 245.389 87.9331Z" fill="white"/>
<path d="M241.984 310.835C242.138 310.963 240.911 312.826 240.615 313.208C238.488 315.941 231.205 324.453 228.845 326.307C227.927 327.029 226.734 327.094 225.629 327.195L227.667 329.564C220.191 337.834 212.015 345.855 203.733 353.35C203.05 353.969 197.481 359.106 197 358.539C196.833 357.348 197.093 356.416 197.531 355.327C200.526 347.87 224.675 323.925 231.75 317.976C233.03 316.9 241.124 310.119 241.984 310.835Z" fill="white"/>
<path d="M229.03 360.59C229.496 361.045 223.562 368.617 222.868 369.759C220.155 374.225 219.178 378.182 215.076 382.415C213.199 384.352 205.789 390.895 206.669 384.28C207.489 378.109 220.34 366.593 225.302 362.65C225.92 362.159 228.508 360.082 229.03 360.59Z" fill="white"/>
<path d="M225.622 396.035C226.194 396.626 221.815 402.478 221.243 403.578C220.226 405.532 220.331 407.853 218.418 410.296C214.696 415.051 210.795 413.325 213.453 408.053C214.627 405.726 219.428 401.126 221.515 399.079C222.118 398.488 224.904 395.293 225.622 396.035Z" fill="white"/>
<path d="M432.842 190.185C432.426 190.674 436.146 196.086 430.112 198.7C429.45 198.986 425.651 199.987 425.341 199.716C425.529 199.578 425.671 199.372 425.788 199.14C424.466 199.984 422.967 200.656 421.485 201.315C421.416 201.345 421.367 201.373 421.302 201.403C421.107 202.222 420.81 203.007 420.546 203.808L420.567 203.82L420.534 203.844C420.268 204.655 420.046 205.488 419.993 206.391C420.705 209.156 420.399 214.236 422.032 215.35C422.334 215.555 423.351 214.828 423.996 215.085C424.875 215.437 425.228 217.167 426.701 216.76C427.563 215.82 421.331 204.333 424.621 202.066C426.83 200.544 430.736 202.95 433.444 197.262C434.325 195.412 435.186 187.426 432.842 190.185Z" fill="white"/>
<path d="M440.577 282.47C440.39 282.549 440.57 283.556 439.33 283.635C438.03 283.718 433.394 282.992 432.135 282.563C430.557 282.024 425.719 278.579 427.39 276.75C427.63 276.487 432.472 279.056 434.039 279.296C440.354 280.263 445.666 279.649 448.516 273.346C441.41 275.035 433.001 276.078 426.193 272.874C422.836 271.294 418.484 249.386 417.941 244.954C416.938 236.772 414.597 224.176 427.021 224.909C428.683 225.007 430.038 226.005 431.678 226.075C437.196 226.308 440.016 224.102 446.471 226.648C461.737 232.672 465.974 253.261 458.859 266.981C454.147 276.067 449.472 278.687 440.577 282.47ZM452.603 236.527C450.861 231.751 443.78 229.666 439.07 229.435C436.481 229.308 425.059 230.264 423.603 231.722C422.093 233.234 421.909 236.208 424.319 236.531L452.603 236.527Z" fill="white"/>
<path d="M202.313 101.091C216.39 99.8716 229.328 104.973 238.594 115.524C278.47 160.934 241.212 275.473 181.471 288.827C135.497 299.104 118.936 249.75 120.689 213.004C122.725 170.337 154.323 105.249 202.313 101.091ZM158.832 132.242C162.215 129.05 166.053 125.923 169.052 122.36C169.696 121.595 170.704 121.251 170.407 119.973C166.61 123.826 160.465 126.819 158.832 132.242ZM188.817 228.351C181.983 224.582 174.753 220.879 172.756 212.717C170.179 202.187 173.321 193.602 177.223 184.046C175.05 185.134 174.501 187.925 173.023 189.723L168.375 200.401C167.06 192.739 172.934 186.976 173.815 179.956C168.856 183.733 167.474 190.103 164.61 194.969C164.386 195.35 163.977 197.583 162.918 196.31C162.449 195.746 164.989 189.582 164.92 188.46C164.853 187.391 163.584 186.741 163.611 185.163C163.661 182.165 166.369 177.503 167.159 174.314C167.381 173.419 168.462 173.015 166.671 173.143C162.697 177.327 161.47 183.802 158.857 188.507C158.582 189.002 157.637 191.15 156.784 190.177C156.446 189.791 159.038 181.523 159.483 180.272C160.558 177.248 163.248 172.904 163.811 170.244C164.042 169.149 164.409 168.843 162.926 168.369L153.38 186.769C153.591 179.188 157.997 171.871 161.536 165.296C160.476 163.778 160.098 164.531 159.209 165.685L149.972 182.679C150.419 173.964 155.162 166.156 158.137 158.144C153.181 161.974 152.735 168.933 148.257 173.136L147.93 172.131L156.777 154.058L154.604 155.626L145.2 172.455C145.606 163.2 151.761 155.436 155.411 147.238C151.103 150.345 148.369 155.208 145.76 159.734C145.418 160.328 143.03 166.943 141.785 165.635C144.724 157.119 148.107 148.6 152.81 140.881C153.918 139.062 157.546 135.3 158.139 133.937C158.488 133.133 157.94 132.587 157.131 132.93C155.897 133.453 151.491 139.608 150.368 141.166C127.308 173.144 113.863 228.201 134.17 264.254C136.931 269.154 145.714 279.85 151 281.509C151.349 281.618 152.112 281.695 152.006 281.181C149.471 278.012 144.545 276.41 143.833 271.979C149.297 274.613 154.411 276.729 160.58 277.023C164.259 277.198 171.588 276.428 174.752 274.61C175.083 274.42 176.438 273.583 175.517 273.331C172.639 274.095 169.673 274.494 166.717 274.704C164.342 274.873 162.916 274.201 161.166 274.099C160.818 274.079 161.196 275.285 159.898 275.444C159.007 275.553 155.114 275.854 154.74 274.71L179.269 269.922L174.837 268.564L189.494 261.743L184.049 260.732C184.941 259.089 191.908 257.958 192.226 257.655C194.299 255.685 185.449 256.275 186.094 253.908C190.165 251.689 193.414 252.001 191.544 246.755H192.225C192.963 248.388 193.881 250.074 196.203 248.68C197.324 248.008 200.13 236.605 201.747 234.82C201.634 233.498 190.972 229.837 189.499 229.033C189.276 228.911 189.083 228.498 188.817 228.351ZM171.092 177.233C169.502 175.543 166.209 185.078 166.33 186.09C167.685 185.598 171.439 177.602 171.092 177.233ZM191.547 220.165C205.482 217.475 212.139 190.512 204.079 180.712C203.297 179.761 200.774 177.926 199.727 178.93C208.684 186.335 205.568 204.971 199.337 213.311L191.547 220.165ZM200.886 197.483C203.375 195.246 201.741 193.685 201.831 191.846C201.957 189.275 204.2 189.892 201.883 184.952C198.724 178.219 192.076 177.686 186.449 182.018C179.299 187.523 175.698 199.531 176.554 208.237C176.862 211.365 179.01 218.626 182.875 218.661C185.482 218.685 191.756 215.62 193.182 213.29C195.246 209.917 196.606 201.433 198.298 198.807C198.845 197.959 200.16 198.135 200.886 197.483ZM247.443 194.277L205.176 181.326C208.581 185.514 209.759 190.208 209.296 195.605C218.954 197.483 228.372 203.016 237.756 205.655C238.539 205.875 241.854 207.307 241.979 205.867L227.673 200.412L239.442 202.605L244.704 207.222L247.443 194.277ZM230.395 239.266C219.391 235.193 208.69 230.346 197.895 225.749C195.841 224.874 194.499 222.791 191.544 223.587C191.702 224.612 192.832 224.855 193.574 225.299C200.578 229.483 210.013 233.709 217.658 236.66C219.19 237.251 227.467 240.594 228.069 240.628C229.124 240.687 230.134 240.421 230.395 239.266Z" fill="white"/>
<path d="M476.464 351.037C484.436 340.847 486.5 327.248 491.124 315.605C491.451 314.783 491.826 313.734 492.816 313.555C491.955 321.162 489.123 329.394 486.129 336.512C484.836 339.584 481.698 346.976 479.77 349.238C478.91 350.248 477.902 351.177 476.464 351.037Z" fill="white"/>
<path d="M623.281 443.736H628.174L626.771 440.343C625.661 441.534 624.486 442.653 623.281 443.736Z" fill="white"/>
<path d="M490.778 434.891C492.043 437.763 493.355 440.791 494.764 443.736H501.69L490.778 434.891Z" fill="white"/>
<path d="M500.995 402.165C500.754 401.902 499.527 401.618 499.789 403.025C502.271 416.38 503.288 430.244 509.181 442.723L509.729 443.735H526.147C515.703 432.463 508.425 418.633 501.537 404.675C501.141 403.873 501.081 402.26 500.995 402.165Z" fill="white"/>
<path d="M228.062 289.75C243.933 285.744 259.259 283.295 275.753 283.535C281.914 285.267 289.49 283.159 295.462 284.956C297.837 285.671 298.752 290.904 302.648 291.072C301.612 293.137 299.033 294.264 298.033 296.329C297.111 298.232 297.338 302.266 297.094 302.555C296.779 302.927 290.619 305.341 288.743 307.487C285.002 311.766 287.288 314.673 286.151 318.528C285.6 320.395 281.057 322.858 279.993 326.004C278.968 329.033 279.711 332.636 279.174 334.708C278.691 336.577 275.761 339.225 274.896 342.036C273.027 348.111 275.883 360.229 278.261 366.23C278.819 367.638 281.403 371.002 281.331 371.846C281.283 372.411 279.455 373.719 278.901 374.672C277.039 377.88 274.984 382.363 275.343 386.15C275.485 387.641 276.782 389.428 276.643 390.136C276.336 391.7 266.036 404.031 264.146 406.265C256.367 415.461 246.289 423.312 240.504 433.745C238.936 436.572 237.013 440.035 235.111 443.735H243.685C243.899 439.448 243.762 434.802 246.418 431.479C247.318 433.578 245.606 435.709 245.387 437.947C245.21 439.753 245.216 441.731 245.379 443.735H250.373C249.051 425.101 272.737 409.96 280.168 393.31C282.425 392.763 281.119 394.577 281.518 395.35C283.338 398.876 288.735 403.568 289.865 406.429C290.726 408.606 289.91 412.166 291.24 413.58C294.867 417.433 305.235 413.018 306.738 414.435C308.764 416.344 305.957 421.529 305.548 423.81C304.527 429.507 304.013 436.817 302.687 443.735H308.783V436.929C309.81 437.231 310.067 440.451 310.138 441.369C310.191 442.043 310.221 442.849 310.226 443.735H322.261C321.366 441.15 320.315 438.627 319.152 436.444C318.269 434.785 316.54 434.182 316.281 432.158C314.996 432.121 309.705 427.166 313.543 427.399C313.752 428.689 315.313 429.817 316.281 430.794C317.329 431.853 319.226 432.814 319.982 434.251C320.685 437.546 322.23 440.594 323.465 443.735H372.656C374.558 431.037 384.257 415.72 392.605 406.579C398.765 399.834 411.715 389.971 414.94 381.881C415.962 379.317 416.619 372.439 419.217 371.112C421.479 369.956 423.376 371.919 422.617 374.404C422.516 374.733 419.564 376.928 418.915 378.358C418.361 379.578 418.575 381.005 417.994 382.208C415.507 387.352 412.588 390.039 408.986 394.331L412.053 392.627C413.16 394.402 409.596 395.846 408.539 396.952C398.567 407.383 382.622 421.162 379.672 435.566C379.293 437.419 380.54 440.169 378.647 441.697L378.309 436.247C377.296 437.744 376.483 441.22 375.331 443.735H388.841C388.874 442.363 388.994 441.002 389.215 439.655C389.546 437.639 390.595 435.457 391.26 433.521C393.665 426.518 403.452 412.628 409.654 408.63C412.726 406.65 408.83 413.735 408.627 414.424C408.426 415.105 407.678 416.607 408.974 416.475C413.586 409.498 419.253 403.091 422.624 395.355L424.325 404.886C427.677 413.707 435.936 405.861 441.006 403.176C442.229 402.528 451.507 397.642 451.921 398.08C449.808 405.018 447.476 412.396 446.553 419.629C445.743 425.976 445.928 434.857 446.66 443.735H452.746C452.329 440.326 452.043 436.919 451.925 433.521C451.424 419.195 452.902 404.922 460.104 392.623C472.101 372.138 490.444 360.958 510.087 348.882C515.579 345.506 519.608 341.322 525.54 340.138C529.284 339.391 532.334 336.871 535.765 335.367C533.448 333.406 530.595 336.654 528.267 336.723C538.609 328.388 552.152 323.857 564.39 318.664C563.941 317.835 562.404 318.536 561.647 318.647C532.315 322.959 508.871 346.739 485.54 363.188C484.299 364.063 482.691 365.328 481.248 365.706C488.195 356.884 497.44 348.072 506.133 340.839C515 333.462 524.412 328.03 534.402 322.416C535.919 321.563 537.189 321.069 538.491 320.371C551.371 313.462 561.461 309.927 574.4 304.136C579.935 301.658 590.568 296.541 582.759 290.066C581.914 289.366 580.181 289.114 580.072 289.006C579.63 288.565 579.763 287.476 581.078 287.656C583.329 287.963 591.958 293.258 593.375 295.139C600.527 304.638 584.547 308.902 578.711 312.536L586.882 312.183C584.288 313.06 581.864 314.264 579.241 315.111C576.361 316.042 571.983 315.984 569.846 318.319C575.033 317.132 580.491 317.621 585.675 316.771C587.462 316.478 594.05 313.92 594.377 314.235C594.467 314.321 594.354 315.754 595.021 316.649C595.676 317.526 597.702 318.398 598.831 319.673C602.485 323.799 605.442 328.55 608.685 332.988C600.752 330.251 590.138 328.038 581.726 329.174C580.415 329.351 580.816 330.602 580.362 330.608C569.072 330.762 552.123 335.456 541.44 340.02C524.79 347.132 509.948 359.141 495.201 369.434C495.899 367.437 498.39 365.297 495.053 364.122C492.402 363.189 492.987 365.159 491.732 365.943C487.267 368.732 482.966 370.439 478.853 374.224C477.112 375.826 465.045 389.354 464.557 390.601C463.959 392.129 464.483 393.7 464.03 394.845C457.698 410.835 456.096 427.327 457.927 443.735H459.913C458.369 433.341 458.332 422.815 460.422 412.367C460.912 409.916 462.88 401.432 464.121 399.859C464.731 399.085 467.57 399.513 469.02 399.15C470.642 398.744 471.481 397.466 473.052 397.398C469.813 413.266 470.384 428.499 473.236 443.735H475.832C471.005 426.073 472.457 404.85 477.868 388.235C478.553 386.133 482.162 377.518 483.459 376.447C485.307 374.919 488.843 375.547 488.576 378.541C488.346 381.13 483.472 386.702 482.273 389.913C477.798 401.894 477.097 422.262 478.855 434.893C479.067 436.416 480.029 440.205 480.891 443.735H486.239C484.222 430.955 485.164 413.977 487.556 402.012C487.901 400.283 489.279 394.868 490.157 393.707C491.111 392.443 493.542 392.075 495.077 391.129C501.86 386.948 500.582 385.791 498.96 394.665C499.238 394.963 503.256 392.641 503.704 392.258C511.876 385.274 515.365 374.708 526.21 368.414C533.619 364.114 557.483 354.452 565.415 354.452H576.662L566.899 359.344C545.863 374.662 533.417 403.54 534.395 429.431C533.197 429.244 533.223 428.056 532.855 427.228C526.303 412.458 524.841 398.463 526.897 382.402L523.802 390.544L522.805 396.708L521.457 393.99C519.525 411.472 522.486 428.681 531.353 443.735H543.649C539.594 426.798 539.802 408.236 546.552 392.164C549.672 384.736 554.134 378.895 557.876 372.116C558.255 371.429 557.727 370.332 558.311 369.224C558.804 368.289 562.701 364.399 563.695 363.638C569.746 359.001 577.446 357.953 584.515 355.828C585.089 355.732 584.891 357.12 584.843 357.171C584.511 357.519 577.205 359.138 575.61 359.876C571.911 361.587 567.303 365.648 565.089 369.115C570.796 366.483 574.971 360.953 581.752 360.555C593.208 359.882 602.548 373.802 604.973 383.739C607.203 392.876 608.82 403.763 607.328 413.068L605.223 403.256C604.441 402.299 603.705 400.136 602.877 399.446C601.966 398.687 599.367 398.84 600.53 397.402C600.596 397.321 601.856 397.595 601.914 397.013C601.941 396.755 601.026 392.133 600.888 391.912C600.118 390.675 596.993 391.877 595.751 392.279C596.519 393.124 602.677 393.905 600.516 396.028C600.089 396.447 590.952 395.151 588.567 395.325C582.692 395.753 573.375 398.984 571.2 404.887C569.692 404.855 570.88 403.727 571.172 403.153C572.09 401.344 574.797 398.301 575.291 397.043C575.619 396.208 575.124 395.714 574.288 396.039C573.294 396.426 563.584 403.431 562.341 404.544C559.72 406.892 558.595 409.094 556.608 411.782C556.042 412.548 556.619 413.478 554.854 413.068C556.132 407.677 556.449 402.065 557.911 396.706C559.19 392.016 562.767 386.65 563.605 382.621C563.878 381.306 563.446 381.714 562.361 381.723C561.131 384.68 558.74 386.963 557.028 389.689C549.414 401.808 544.16 417.381 543.915 431.781C543.842 436.05 544.642 439.838 545.473 443.735H612.547C615.394 441.419 618.014 438.86 620.968 435.566C622.38 430.169 627.79 424.905 629.829 419.888C630.207 418.959 629.445 416.607 631.192 415.799C630.835 413.355 630.638 408.951 628.458 407.96C631.164 407.367 635.094 413.703 636.226 415.877C639.3 421.78 637.474 420.959 636.148 425.866C635.344 428.843 634.57 434.723 633.258 437.163C632.854 437.914 631.737 437.354 631.145 438.04C630.425 438.875 629.387 441.989 628.728 443.735H650.808C650.33 443.425 649.832 442.992 649.314 442.323C644.096 435.578 647.345 427.92 646.837 420.198C646.25 411.283 641.292 404.536 632.932 401.449C631.004 400.737 627.389 400.788 626.088 399.432C623.341 396.567 620.703 380.576 616.986 376.479C625.349 367.073 629.892 357.501 627.711 344.642C624.992 328.61 609.586 321.02 606.841 308.255C605.642 302.675 606.392 298.037 603.391 292.621C597.929 282.764 580.514 279.382 570.178 278.121C568.555 277.924 565.997 278.484 564.811 278.153C563.966 277.916 563.118 273.51 565.398 274.028C565.656 274.087 569.332 278.334 569.842 275.714C570.064 274.576 567.002 272.835 566.565 270.796C566.135 268.792 566.949 265.807 567.455 263.791C570.254 252.636 581.335 245.238 582.123 233.127C583.335 233.597 582.892 237.172 582.825 238.264C582.464 244.233 581.005 249.475 578.711 254.931C584.674 252.558 585.973 245.557 586.894 239.943C588.062 239.771 587.621 241.564 587.562 242.312C587.426 244.012 586.598 245.664 586.894 247.437C590.673 243.134 588.624 235.729 587.572 230.4C588.259 229.631 590.484 232.274 590.955 232.803C599.496 242.382 602.119 254.071 599.162 266.522C602.733 263.695 604.538 257.908 605.633 253.573C608.876 240.727 607.554 227.593 602.568 215.404C603.189 214.756 609.939 220.408 610.753 221.185C615.738 225.937 620.96 233.52 618.93 240.617C620.301 240.929 619.901 235.558 621.639 237.215C622.084 237.639 622.62 241.79 624.369 241.984C624.692 241.541 622.939 232.467 622.548 231.202C621.679 228.389 619.363 226.485 618.93 223.58C632.139 233.545 644.739 249.728 643.469 267.201L646.667 258.481C652.771 230.762 642.299 203.438 623.698 183.02L628.105 185.4C632.657 188.641 635.687 193.276 639.034 197.675C639.731 197.592 639.358 196.625 639.22 196.128C637.325 189.328 630.607 181.093 625.014 176.932C621.932 174.639 617.601 173.144 614.834 170.42C630.184 173.983 647.81 185.569 652.533 201.266C652.753 201.998 652.476 202.461 652.324 203.124C653.4 203.899 653.58 203.117 653.703 202.106C654.137 198.515 651.694 188.627 650.471 184.875C642.811 161.367 615.887 143.498 591.661 142.463C591.027 141.056 593.607 140.422 594.044 140.422H606.313C607.027 140.422 607.748 138.753 606.189 138.5L598.479 137.022C607.75 132.823 620.228 129.17 629.492 134.965C630.171 132.67 624.908 130.365 622.789 129.399C612.226 124.584 599.103 125.114 588.254 128.831C590.232 124.393 592.914 120.231 594.393 115.551C596.761 108.06 596.893 102.304 595.531 94.6289C595.272 93.1688 592.762 83.5754 592.332 83.164C592.282 83.1155 590.893 82.9174 590.989 83.4923C594.977 96.1043 589.065 110.271 579.396 118.61C584.36 102.042 581.845 83.5438 574.291 68.1553C568.557 56.4763 557.922 46.0504 556.888 32.7281C555.95 32.771 555.659 35.8849 555.618 36.559C554.597 53.2826 565.715 70.3285 560.918 89.5738C560.718 90.3762 560.665 91.2123 559.629 91.3439C559.108 85.1177 554.375 81.8561 551.433 77.0357C550.579 76.8493 550.652 77.3423 550.73 78.0705C550.998 80.5709 554.486 84.7075 555.653 87.4742C557.774 92.4999 558.262 96.8831 556.887 102.246L548.319 87.9918C528.341 61.4205 504.946 60.1333 477.583 47.6237C475.257 46.5604 472.769 43.9758 470.332 44.6499C482.862 57.3266 499.197 62.2205 510.829 76.4054C513.544 79.7166 517.449 84.9734 517.705 89.2964C512.505 81.9165 500.101 75.6665 491.129 75.6498C490.338 75.6483 488.563 75.1904 488.736 76.3418C492.615 76.6771 497.298 78.4591 500.551 80.5469C501.05 80.8672 506.774 85.2581 504.059 85.2203C486.454 78.6129 467.564 80.6731 452.28 68.1544C446.546 63.4573 442.899 59.1638 443.022 51.4277C443.034 50.6632 444.371 46.7446 442.393 48.4049C442.044 48.6974 439.973 55.3801 439.833 56.4162C438.844 63.7302 441.317 69.9608 444.423 76.3454C417.941 65.0202 383.958 69.9597 363.317 90.3255L370.139 86.9236C381.794 82.4137 393.453 80.9717 405.719 84.0429C407.147 84.4005 416.731 87.5206 417.16 87.9461C418.05 88.8288 417.673 88.8654 416.52 89.0954C415.118 89.3751 413.16 89.1423 411.552 89.4912C410.447 89.7309 395.645 93.5523 398.083 96.1158C403.79 92.3847 410.877 91.9834 417.488 92.7279L424.656 94.0635C409.774 98.5958 395.039 103.382 379.325 104.289C371.106 104.763 363.365 103.686 355.106 105.296C345.894 107.092 334.854 111.587 328.551 118.603C335.062 115.501 340.917 113.415 348.194 112.706C361.892 111.371 368.054 116.795 379.431 117.891C380.075 117.953 385.832 116.675 383.763 118.603C382.273 119.991 376.113 119.196 374.082 119.46C369.424 120.068 364.974 121.85 360.592 123.39C360.403 124.548 362.238 124.129 362.915 124.01C367.154 123.271 374.135 119.99 377.627 123.371C366.142 129.741 355.9 137.995 343.011 141.59C333.301 144.299 324.037 145.541 316.97 137.014C316.746 138.176 317.333 139.002 317.737 139.989C320.337 146.345 333.076 158.509 338.96 162.389C346.364 167.271 355.666 170.989 364.676 170.42C364.438 171.744 363.24 171.535 362.322 171.807C350.66 175.27 339.763 180.499 338.779 194.267C340.78 194.271 341.136 191.605 342.534 190.189C345.785 186.894 356.41 183.364 360.928 183.364H380.354L374.443 185.292C371.713 187.17 367.186 188.67 364.714 190.559C361.129 193.298 361.455 197.323 357.648 199.852C354.069 202.229 350.392 202.91 346.273 201.774C348.585 206.352 356.384 205.542 360.954 205.203C367.184 204.741 373.148 202.408 378.987 200.408C379.294 201.589 378.5 201.77 377.973 202.454C376.202 204.752 372.972 207.947 370.845 210.322C368.954 212.434 367.134 211.637 367.403 215.401C374.384 216.919 380.995 214.59 387.163 211.311C387.974 212.377 381.119 221.096 380.042 222.735C377.83 221.819 375.459 221.128 373.316 220.053C372.577 219.682 367.726 216.894 367.517 216.63C367.223 216.257 367.432 215.805 367.403 215.401C356.18 212.96 343.574 200.16 332.986 199.039C331.115 198.841 325.767 199.6 325.107 199.351C324.564 199.146 317.179 193.199 315.96 192.206C305.272 183.505 294.317 171.796 286.007 160.812C262.684 129.983 248.593 80.7823 199.583 90.1824C127.517 104.005 84.1447 229.694 131.212 284.935C159.748 318.426 193.974 298.352 228.062 289.75ZM247.096 430.794V430.113C247.539 430.34 247.539 430.567 247.096 430.794ZM493.156 388.52C494.199 383.506 499.087 380.019 503.395 377.642C501.979 382.391 496.663 385.275 493.156 388.52ZM503.742 376.612L504.757 375.596C505.447 376.207 503.728 377.327 503.742 376.612ZM576.659 348.311H572.576V347.643H576.659V348.311ZM596.449 356.819C593.542 356.077 590.506 356.686 587.572 356.49C587.555 355.081 589.848 356.323 590.677 355.174C591.02 354.698 591.175 353.408 590.972 353.102C590.473 352.347 582.829 351.142 581.419 350.719C580.526 350.451 577.798 349.244 577.347 348.325C587.44 348.939 600.068 352.96 605.277 362.298C602.4 360.813 599.688 357.645 596.449 356.819ZM628.125 406.256C628.568 406.483 628.568 406.71 628.125 406.937V406.256ZM365.388 195.323L362.632 196.308C364.132 193.949 366.417 191.824 369.445 192.232L365.388 195.323ZM302.649 301.285C303.839 294.703 306.942 293.578 313.191 292.414C314.165 292.232 314.174 293.115 314.236 293.106C316.741 292.741 317.841 290.927 321.936 291.887C325.921 292.822 336.899 305.159 338.031 309.197C338.446 310.678 337.501 309.966 336.73 310.147C337.255 311.14 337.424 310.871 338.777 310.831L338.769 311.842C337.128 313.337 333.535 319.421 333.257 313.893C333.092 310.608 334.323 310.71 336.73 310.147C336.465 309.645 336.677 308.407 335.669 308.118C334.021 307.646 331.773 310.691 331.428 312.026C331.022 313.602 332.675 317.755 330.945 316.957C329.166 316.136 322.829 309.949 320.715 308.1C319.77 307.273 319.324 305.588 318.355 305.089C317.879 304.844 316.914 305.269 316.289 305.03C314.023 304.164 311.921 303.036 309.472 302.649L310.144 306.052L301.965 305.372C302.074 303.998 302.404 302.64 302.649 301.285ZM349.789 334.786C349.969 334.564 353.935 333.644 354.449 332.296C347.24 331.687 353.137 330.163 355.756 328.149C357.035 327.165 358.061 325.908 359.22 324.798C358.717 323.775 357.016 325.582 356.498 325.137C356.224 324.901 357.801 323.402 356.841 323.101C353.605 326.991 346.105 330.459 342.184 325.831C343.897 325.665 346.469 324.728 347.855 323.8C348.502 323.366 348.24 322.496 348.318 322.416C346.195 325.185 340.115 325.057 338.1 321.735L338.437 325.139C336.279 322.915 335.845 320.406 338.436 318.327C343.598 314.186 351.436 318.346 348.318 322.416C348.835 321.876 350.895 322.676 350.377 319.378C350.141 317.876 347.252 315.276 345.769 315.02C344.147 314.74 341.38 316.535 340.825 314.927C346.842 311.662 356.778 305.193 361.834 313.331C364.783 318.078 362.098 323.605 360.218 328.523C357.612 335.342 355.109 340.302 352.613 347.5C348.772 358.573 341.251 365.242 329.918 368.082C331.948 363.086 333.771 358.802 337.212 354.593C339.034 351.697 338.662 347.765 340.138 344.909C340.424 344.356 344.87 338.872 345.258 338.776C346.798 338.392 346.666 340.501 346.954 340.82C347.543 341.471 348.822 341.573 349.681 341.495C348.916 340.614 349.556 335.072 349.789 334.786ZM347.649 305.402C347.584 305.501 348.539 306.783 348.044 307.444C347.888 307.653 343.45 309.387 343.19 309.365C342.77 309.331 339.274 304.251 339.059 303.329C338.667 301.654 339.488 300.249 339.497 298.603C340.683 298.51 341.988 298.406 343.168 298.599C343.687 298.685 349.488 301.344 348.312 298.909C347.711 297.665 340.772 295.221 339.024 294.53C338.062 294.149 337.033 295.191 337.415 293.109C339.976 293.718 342.929 292.436 345.178 292.492C351.467 292.649 358.045 297.668 364.676 295.158L356.841 300.607C356.432 304.285 347.947 304.954 347.649 305.402ZM361.268 291.743C358.064 290.373 353.655 287.672 350.362 286.971C344.756 285.778 337.775 286.789 332.402 286.047C330.711 285.814 329.093 284.606 327.187 284.92C327.445 283.68 328.528 283.652 329.548 283.538C335.714 282.849 344.325 284.673 350.362 286.29C355.449 287.652 357.628 289.242 361.95 291.061C362.714 291.382 364.597 291.168 365.556 291.883L370.808 294.462C366.856 295.286 364.513 293.13 361.268 291.743ZM288.679 389.212C287.857 387.415 278.527 386.119 280.834 383.766C281.633 382.95 288.353 385.268 288.91 385.906C289.15 386.181 289.306 388.82 288.679 389.212ZM287.653 382.399C286.287 382.582 283.96 382.505 282.532 382.399C281.518 382.324 280.557 382.93 280.842 381.386L294.132 366.043L295.151 372.175C295.766 371.326 298.202 370.008 298.903 368.77C299.584 368.846 299.261 369.828 299.086 370.314C298.326 372.419 291.675 382.5 289.997 384.403C288.909 385.636 287.826 383.423 287.653 382.399ZM295.166 390.911C298.539 392.491 301.688 395.107 304.693 397.388C300.945 397.043 296.451 394.557 295.166 390.911ZM313.521 392.609C312.421 391.93 309.244 392.557 308.912 392.44C308.817 392.407 308.77 391.547 308.266 391.318C306.985 390.736 305.379 390.915 304.694 389.215C301.084 389.695 299.018 386.919 296.862 387.131C295.002 387.313 294.841 390.107 293.113 390.578C293.057 388.449 294.276 385.445 295.321 383.591C296.081 382.246 298.267 380.737 298.431 379.905C298.524 379.43 297.867 379.043 297.877 378.991C296.711 381.067 294.71 383.753 293.095 385.456C292.59 385.989 291.736 387.235 291.066 386.153C294.539 380.167 298.985 374.726 301.294 368.09C302.712 368.388 300.904 373.641 300.572 374.399C300.18 375.295 298.991 374.48 299.245 375.577C301.137 374.783 301.277 375.126 302.649 375.583C305.561 376.553 307.624 379.105 310.144 380.698L307.749 380.364L307.083 382.396L305.379 379.676C305.201 381.439 305.839 383.257 306.835 384.687C307.816 386.095 308.997 385.995 309.461 387.163C305.462 387.261 304.565 383.147 300.605 383.768C301.853 385.218 304.483 387.647 306.057 388.534C308.437 389.875 311.635 391.076 314.232 389.899L313.521 392.609ZM311.503 359.224C308.008 363.016 304.471 361.278 300.068 360.1C295.38 358.846 291.098 356.172 286.295 355.818L289.016 359.217C278.974 357.635 289.64 361.746 289.687 362.97C287.345 364.418 287.575 370.304 285.032 366.956C281.375 362.142 278.4 347.161 280.696 341.695C281.433 339.941 283.693 338.129 284.103 336.248C284.87 332.733 283.962 329.096 286.081 325.331C286.926 323.831 288.457 323.885 289.472 322.869C293.252 319.084 289.863 309.702 296.318 308.249C303.892 306.543 322.825 313.116 327.557 319.66C329.169 321.888 331.101 326.523 331.959 329.232C332.109 329.708 331.633 330.706 332.64 330.595C332.796 330.578 333.284 329.692 333.969 330.192C334.266 330.409 338.58 335.505 338.677 335.86C339.029 337.146 336.578 342.427 335.967 342.783C333.556 344.189 329.132 337.22 327.194 336.719C326.928 336.44 328.789 335.076 329.232 334.685C328.796 334.549 328.246 334.05 327.869 334.003C322.829 333.382 323.905 332.277 320.149 330.476C312.981 327.04 305.489 324.662 297.881 322.419C296.815 323.408 301.397 325.898 301.939 326.193C307.098 329.006 313.49 330.061 318.49 333.308C322.04 338.818 338.783 347.436 330.386 354.922C325.879 358.94 322.581 352.82 319.008 350.363C318.059 349.71 316.704 349.008 315.6 348.318C313.857 347.228 311.106 345.356 309.473 344.561C307.637 343.666 293.239 339.229 292.097 339.454C291.919 339.49 290.75 340.449 291.391 340.824C299.41 345.168 307.459 347.114 315.133 352.534C317.53 354.227 325.255 360.638 325.026 363.54C324.886 365.307 320.888 368.238 319.4 368.13C319.009 368.102 318.652 366.694 317.912 366.139C315.341 364.209 310.884 363.411 311.503 359.224ZM331.952 441.015L327.319 431.004L322.419 424.663C329.057 425.433 332.304 435.154 331.952 441.015ZM332.299 442.382V441.7C332.742 441.928 332.742 442.155 332.299 442.382ZM329.936 417.482C325.293 416.353 322.844 417.485 318.657 417.162C317.918 417.105 316.385 417.542 316.969 416.149C317.411 415.094 324.424 409.347 325.644 409.098C335.179 407.148 349.172 426.717 349.674 435.566C343.806 427.361 340.596 420.075 329.936 417.482ZM359.181 403.913C357.98 403.06 352.324 400.085 351.067 399.764C346.822 398.678 342.334 400.791 338.098 399.785C339.738 398.044 340.561 393.7 342.206 392.305C349.036 386.513 366.709 402.153 366.718 410.342C365.878 411.245 360.22 404.652 359.181 403.913ZM386.484 389.9C384.045 390.3 385.807 389.564 385.807 388.874C385.807 383.56 385.289 376.941 385.807 371.834C386.225 367.715 388.43 363.303 389.224 359.229C390.3 359.043 389.95 360.19 389.921 360.941C389.734 365.898 387.736 372.748 387.182 377.98C386.765 381.912 387.563 385.995 386.484 389.9ZM389.904 392.623C391.787 386.617 395.073 379.985 398.751 374.901C397.352 381.344 394.425 387.885 389.904 392.623ZM399.099 374.219V373.538C399.541 373.765 399.541 373.992 399.099 374.219ZM419.219 352.189C418.757 354.123 419.521 357.109 419.2 359.22L412.274 348.094L408.291 339.125C409.646 337.555 409.381 339.27 409.723 339.771C410.895 341.49 411.734 343.533 413.423 344.903L414.427 340.821C414.823 342.458 415.53 344.794 417.162 345.591V330.595C418.36 330.442 417.812 332.139 417.844 332.974C417.929 335.219 417.688 337.471 417.927 339.713C418.299 343.184 420.624 347.846 420.626 350.752C420.626 351.986 419.359 351.6 419.219 352.189ZM413.065 331.277C406.776 327.591 415.185 319.747 418.873 316.977C417.389 319.854 414.218 322.566 413.394 325.805C412.921 327.663 413.038 329.4 413.065 331.277ZM406.64 317.687C405.327 319.54 404.453 323.028 403.156 324.428C401.592 326.115 397.614 326.956 395.661 329.202C392.678 332.63 394.246 338.409 391.966 341.184C390.819 342.579 381.815 345.938 379.036 348.022C368.265 356.102 362.993 371.293 354.795 381.735C353.071 383.245 346.867 382.6 344.049 383.242C341.773 383.759 338.059 385.559 336.455 387.236C333.89 389.918 330.026 401.364 329.244 401.837C327.325 402.996 321.507 401.249 319.015 403.529C319.98 395.249 324.76 387.703 329.631 381.094C335.695 372.868 336.721 373.676 344.185 368.383C355.524 360.341 354.924 351.7 359.569 340.824C360.681 338.22 363.03 336.003 364.122 333.108C364.834 331.219 367.814 322.762 368.041 321.353C369.079 314.896 365.931 308.097 359.22 306.729C361.08 298.431 371.013 302.74 376.677 303.259C388.332 304.325 399.425 299.483 405.855 289.638C408.205 286.041 409.308 281.851 411.368 278.124C417.707 286.115 419.652 298.11 430.793 301.294C423.138 306.94 412.49 309.432 406.64 317.687ZM394.668 266.182C394.668 262.142 394.879 257.924 394.668 253.912C394.627 253.135 392.699 249.44 394.661 248.804C398.086 261.997 395.299 276.765 386.505 287.328C385.202 288.893 378.807 295.002 377.324 295.87C376.244 296.502 375.463 296.663 374.219 296.507C381.406 291.459 386.993 285.318 390.695 277.204C391.5 275.439 394.668 267.487 394.668 266.182ZM388.519 229.433C388.535 229.256 390.813 227.793 391.027 227.758C393.344 227.378 392.644 234.697 393.3 236.529C389.923 237.426 388.319 231.643 388.519 229.433ZM404.899 194.952L405.237 195.143C405.207 194.826 405.199 194.507 405.208 194.189C405.058 191.584 404.678 189.125 403.766 186.52C403.352 185.337 403.396 184.1 403.758 182.947L403.603 182.95C403.649 177.734 406.168 174.525 411 172.76C413.932 171.689 412.858 173.644 413.072 173.821C413.506 174.18 414.016 173.965 415.117 175.185C417.388 177.701 419.094 181.222 421.927 182.69L421.612 182.695C422.354 183.23 423.076 183.792 423.905 184.266C424.914 184.842 425.89 185.422 426.76 186.065C427.59 185.465 431.034 188.959 430.805 190.18C434.8 187.588 430.118 185.345 430.088 185.011C429.994 183.984 431.518 180.974 430.789 179.271C425.86 180.7 422.514 173.916 419.888 171.095C419.17 170.324 415.138 167.649 415.129 167.347C416.772 164.12 420.518 165.131 422.615 164.279C429.191 161.606 437.889 157.193 444.441 153.728C448.766 151.441 457.297 145.015 461.14 143.84C461.492 143.733 462.252 143.652 462.146 144.167C454.533 151.635 445.752 157.969 436.881 163.902C436.01 164.485 432.128 165.665 435.106 166.217C451.272 159.97 466.512 151.808 477.82 138.377L477.152 146.553L478.501 143.152C477.644 148.501 480.605 153.198 481.773 157.982C481.959 158.743 481.216 159.841 481.354 160.093C481.53 160.415 485.328 162.691 484.64 164.957C482.421 164.691 480.706 165.43 478.73 166.204C473.462 168.268 456.046 179.824 452.306 179.294C451.078 179.12 450.214 177.25 449.203 178.248C452.457 185.45 458.254 185.137 464.875 182.689L466.926 180.646C472.256 178.884 476.187 173.962 481.029 171.23C489.113 166.671 487.235 170.551 491.791 175.875C493.317 177.657 495.378 179.061 496.912 180.638C497.174 180.498 497.42 180.008 497.594 179.956L491.459 169.057C497.478 168.107 499.106 174.335 501.002 178.593C502.342 181.602 503.381 182.345 503.728 186.091C505.252 202.528 501.79 220.699 487.37 230.39C494.89 228.361 500.201 223.242 505.773 218.127C506.857 215.856 508.728 213.719 510.538 211.993C509.054 220.088 506.535 228.875 501.967 235.792C500.224 238.431 500.278 237.814 498.275 239.257C496.606 240.462 494.699 241.779 492.828 242.674C492.645 243.899 494.287 243.257 494.916 243.06C496.964 242.415 498.261 240.844 500.32 240.627L496.912 250.838C499.006 252.451 507.091 243.413 508.85 242.671C510.052 242.164 510.093 243.42 509.76 244.265L492.823 263.789C499.767 262.266 502.202 255.148 507.818 252.208C507.848 250.358 509.89 249.692 511.219 248.8C511.019 253.78 512.123 257.838 509.863 262.433C503.653 275.058 485.245 283.079 472.833 288.453C460.474 293.803 435.082 305.517 425.045 291.698C423.363 289.383 413.523 273.841 412.757 271.95C411.816 269.626 412.664 266.18 412.307 263.538C411.414 256.924 409.127 250.248 404.878 245.066C403.803 243.756 398.918 239.805 398.778 239.414C396.987 234.435 398.07 221.412 399.44 216.082C400.475 212.053 403.197 207.94 404.211 204.495C405.114 201.427 404.884 198.105 404.899 194.952ZM474.651 112.39C473.42 112.539 472.008 112.297 471.01 112.475C465.601 113.441 460.173 115.354 455.333 117.928C458.951 119.554 463.266 116.891 467.237 116.54C467.982 116.474 471.023 116.055 471.006 117.239C465.125 118.397 458.767 120.9 453.288 123.381C447.701 125.912 440.182 129.829 434.884 132.924C433.553 133.702 431.698 136.557 429.431 136.325C430.375 134.275 432.598 133.515 434.202 132.242C435.259 131.404 435.613 130.965 436.541 130.178C438.076 128.877 440.063 127.991 441.019 126.114L429.431 130.197C425.838 133.836 421.418 136.932 417.162 139.74C416.425 140.226 416.51 141.748 414.435 141.096C414.568 140.021 415.935 139.644 416.48 139.058C419.997 135.283 422.768 132.146 427.386 129.516L428.068 128.834C428.357 128.707 429.02 128.919 429.431 128.834C429.562 127.659 429.628 127.607 430.529 126.882C438.457 120.505 459.545 111.296 469.647 111.793L479.186 111.119C478.794 112.05 475.654 112.268 474.651 112.39ZM478.849 137.695V137.014C479.292 137.241 479.292 137.468 478.849 137.695ZM460.104 129.523C456.895 132.536 452.977 134.868 449.198 137.014C446.861 138.34 443.842 141.125 441.012 140.081C440.992 139.527 448.233 136.908 449.198 136.332C449.41 136.206 449.812 135.124 450.573 134.67C453.598 132.866 456.795 130.278 460.104 129.523ZM410.346 145.186C410.902 144.499 412.965 140.505 414.432 141.789C415.377 142.616 410.983 145.729 410.346 145.186ZM494.874 122.021L501.835 135.872C502.393 136.542 502.136 137.875 502.365 138.377C502.662 139.026 503.651 139.976 504.41 141.785C507.272 148.608 509.972 156.093 510.538 163.594L505.649 153.121L503.728 151.328C503.838 151.706 503.622 152.304 503.728 152.691C503.834 153.076 504.545 153.76 504.778 154.677C505.795 158.681 506.752 162.877 507.13 167.005C505.567 165.539 504.495 162.649 503.606 160.652C502.56 158.303 501.901 155.562 501.002 153.373C500.174 151.356 498.632 149.19 497.767 146.724C495.998 141.679 494.693 137.312 494.864 131.892C494.889 131.072 494.364 129.356 495.542 129.519C495.228 133.634 497.009 137.36 498.284 141.098C499.485 141.402 498.758 139.876 498.957 139.74C498.587 137.522 497.806 129.48 496.243 128.534C495.801 128.267 494.909 128.894 494.873 128.834C494.444 128.137 495.164 123.39 494.874 122.021ZM493.849 166.331C486.929 165.785 486.455 161.221 485.324 155.417C484.648 151.945 484.613 148.857 485.665 145.192C485.851 144.542 486.491 142.436 487.362 142.471C488.201 150.168 492.988 157.512 494.186 164.96C494.315 165.764 495.834 166.488 493.849 166.331ZM435.579 309.131C437.396 307.525 440.102 306.769 442.378 306.063C442.354 307.066 440.461 307.359 439.623 307.728C438.427 308.255 436.848 308.937 435.579 309.131ZM437.608 378.314L435.573 383.759C435.746 382.432 435.219 377.945 437.608 378.314ZM435.559 384.448C435.438 386.012 435.213 388.511 433.527 389.215C433.948 387.948 434.427 385.17 435.559 384.448ZM432.843 310.821C432.181 310.504 434.193 309.506 434.87 309.799C434.267 310.535 433.841 311.046 432.843 310.821ZM400.105 288.659C399.574 289.32 396.126 293.146 395.35 292.418C401.926 286.684 405.692 278.433 404.896 269.592L402.507 274.007C400.885 274.124 402.589 269.112 402.847 268.574C400.547 267.866 401.297 272.136 400.796 272.658C400.378 273.092 399.517 273.352 399.697 271.926C399.901 270.305 400.566 268.299 399.095 267.207L398.751 269.93C398.615 270.118 397.851 269.561 397.718 269.254C397.12 267.879 398.165 259.39 397.988 256.725C397.84 254.506 397.206 250.773 396.521 248.651C395.798 246.409 394.014 245.009 393.993 242.666C410.487 249.325 409.728 276.685 400.105 288.659ZM423.272 332.275C423.675 327.693 425.43 322.434 430.099 320.705C424.704 325.289 425.41 331.861 423.978 338.087C425.722 339.583 428.715 329.902 430.791 331.961C431.273 332.439 429.511 340.168 429.405 341.816C428.634 353.79 431.861 365.77 428.742 377.624C427.553 377.784 428.101 376.077 428.068 375.249C427.87 370.325 427.924 365.992 427.289 361.025C426.051 351.338 422.389 342.319 423.272 332.275ZM445.125 399.115C435.907 403.601 424.568 408.736 426.711 392.627L431.093 401.266C438.221 400.596 444.315 396.317 451.243 395.357C449.903 397.173 447.133 398.138 445.125 399.115ZM439.662 385.807C440.646 383.272 440.987 379.377 442.221 377.133C442.652 376.349 442.195 375.981 443.735 376.267C445.456 379.992 442.095 383.34 439.662 385.807ZM459.426 374.894C458.964 374.658 459.825 373.737 460.782 374.226C461.245 374.463 460.383 375.384 459.426 374.894ZM461.471 374.212C461.009 373.976 461.87 373.055 462.827 373.545C463.29 373.781 462.428 374.702 461.471 374.212ZM463.512 373.531C464.574 371.592 467.608 370.981 469.647 370.818C468.481 373.191 465.956 373.797 463.512 373.531ZM513.953 326.506C507.674 333.772 497.586 340.006 490.42 346.938C488.04 349.241 476.754 363.143 475.751 363.624C470.938 365.926 463.039 367.171 457.584 369.995C454.996 371.335 449.099 376.774 446.252 376.284C443.905 375.881 440.543 363.881 439.662 361.269C442.334 363.931 446.289 364.378 448.51 367.403C449.244 363.458 445.735 361.315 443.745 358.555C447.252 355.992 448.371 355.524 452.606 354.452L448.518 351.734C453.066 350.055 458.885 347.57 460.795 342.87C461.952 342.686 461.382 343.679 461.289 344.38C460.936 347.039 459.719 349.619 460.104 352.407C462.086 350.822 464.876 344.261 464.876 341.842V331.959C465.991 332.266 465.813 334.097 466.604 335.342C467.067 336.071 468.129 337.078 468.959 337.411C469.824 333.995 468.555 329.255 472.36 327.521L469.659 328.551C468.872 326.575 468.344 324.382 467.602 322.416C467.302 321.619 466.076 320.773 465.715 319.196C464.585 314.256 465.721 315.534 468.284 314.236C475.613 310.526 476.895 305.362 481.91 300.257C486.45 295.635 493.287 289.54 498.267 285.259C501.191 282.746 504.621 280.729 507.481 278.114L506.451 283.22C510.359 284.781 509.253 277.824 512.583 276.747C512.768 279.184 512.496 281.565 511.966 283.939C511.716 285.06 510.772 284.981 510.713 285.263C510.161 287.909 510.631 291.364 509.182 294.118C511.442 296.886 511.243 290.623 513.953 291.061V303.671C513.953 305.067 517.389 320.384 518.042 321.734C518.123 321.9 519.234 322.173 519.366 322.81C519.65 324.18 515.503 326.799 513.953 326.506ZM571.207 284.937C573.32 287.14 565.368 285.053 565.078 285.601C565.455 283.672 570.567 284.27 571.207 284.937ZM620.627 159.507C621.07 159.734 621.07 159.962 620.627 160.189V159.507ZM619.264 158.826C619.707 159.053 619.707 159.28 619.264 159.507V158.826ZM578.359 148.601C592.205 148.037 606.91 150.123 618.228 158.492C604.651 153.539 590.477 150.267 575.984 149.276C575.825 148.087 577.532 148.635 578.359 148.601ZM582.464 163.585C583.281 163.501 582.9 161.289 584.371 161.635C587.143 162.287 593.139 166.498 594.385 169.05C596.243 170.279 598.948 172.656 600.493 174.216C601.14 174.868 601.035 175.903 601.698 176.575C604.018 178.925 608.057 180.693 609.387 184.38L604.608 180.298C602.262 177.033 597.943 174.487 594.385 172.458C592.167 171.194 589.572 170.582 587.54 169.42C581.903 166.195 576.938 161.68 570.521 159.848C570.564 157.888 581.834 163.65 582.464 163.585ZM568.49 77.7156C568.726 77.2532 569.647 78.1146 569.157 79.0718C568.921 79.5343 568 78.6729 568.49 77.7156ZM569.171 79.7604L571.691 88.4768L573.248 102.25L571.214 101.569C570.221 102.689 570.487 114.481 567.126 115.883L569.171 79.7604ZM571.928 176.882C572.373 177.56 572.425 178.381 572.572 178.593C574.193 178.755 578.815 183.219 578.019 184.046C574.953 182.786 574.147 180.847 572.572 178.593C572.128 178.548 571.66 178.612 571.214 178.592C570.958 181.133 572.021 183.479 572.429 185.907C572.663 187.293 571.52 187.101 571.217 186.773C570.917 186.45 569.041 179.521 568.286 178.449L563.036 168.369C565.661 171.184 569.702 173.492 571.928 176.882ZM565.072 299.231L557.91 301.953L560.655 298.555C560.035 297.675 550.584 293.582 549.014 293.148C543.545 291.637 539.147 293.288 533.723 293.45C537.758 290.44 543.126 291.799 547.722 291.772C549.358 291.762 550.965 290.914 552.472 290.998C555.088 291.143 555.397 293.369 557.387 294.315C559.052 295.107 561.195 294.801 562.173 295.336C562.386 295.453 565.451 298.735 565.072 299.231ZM535.083 278.785L539.166 274.702C538.904 277.307 538.149 279.412 535.083 278.785ZM561.66 260.388C560.046 266.283 561.29 272.265 562.35 278.104C556.056 277.967 550.257 276.785 543.944 278.103C548.79 271.316 555.879 266.364 561.66 260.388ZM556.344 235.639C552.734 243.64 534.501 258.479 525.87 258.375C525.134 258.367 521.722 257.181 521.54 256.888C520.743 255.605 524.105 247.518 524.184 245.39C525.422 244.915 528.713 247.566 528.927 247.422C528.986 247.383 528.734 246.516 529.459 246.115C533.393 243.935 537.071 244.362 539.854 239.257C541.436 236.357 542.656 228.228 539.175 226.651C540.125 224.851 542.133 224.385 543.263 223.58C543.817 223.185 544.84 222.968 545.087 222.71C545.906 221.854 545.592 219.63 547.002 220.178C549.098 220.993 549.839 225.405 552.117 226.306L552.798 222.902L552.812 231.078C554.404 233.242 557.668 214.625 550.273 213.472C543.629 212.435 537.003 222.996 533.045 226.988C533.767 224.49 534.854 222.153 535.568 219.634C536.148 217.584 536.292 213.841 537.087 212.464C537.694 211.413 543.026 208.515 544.44 208.058C560.012 203.034 560.852 225.648 556.344 235.639ZM525.874 244.015C527.567 240.105 529.249 234.046 531.511 230.595C531.939 229.942 531.43 229.37 533.035 229.713C534.967 236.423 529.753 239.672 525.874 244.015ZM543.596 174.506C541.824 175.019 542.659 170.064 542.581 169.05C542.268 164.965 540.78 155.575 539.173 152.009C539.042 151.719 536.964 149.736 536.446 149.283C536.209 149.634 536.985 150.901 535.772 150.642C534.613 146.81 535.189 143.881 533.617 140.179C532.256 136.975 529.715 133.489 527.589 130.886C528.866 130.586 529.208 131.602 529.973 132.24C534.731 136.209 536.841 140.322 539.173 145.875C540.339 148.652 540.467 148.994 541.218 152.009C542.896 158.754 542.894 162.292 543.263 169.05C543.289 169.533 545.015 174.096 543.596 174.506ZM530.632 81.8223C535.284 86.6238 541.137 91.611 543.257 98.1565L535.772 90.6631C536.127 94.7128 537.878 98.4141 538.711 102.377C538.854 103.056 539.802 104.453 538.5 104.29C535.522 95.9039 530.376 88.6286 526.102 80.8989L520.091 74.3108L530.632 81.8223ZM522.132 137.695C527.15 145.695 528.392 149.434 529.63 158.826C529.698 159.34 531.463 167.474 528.958 164.959C528.664 164.663 527.311 159.272 526.904 158.144C526.657 157.461 526.533 155.631 525.874 155.413C524.379 154.92 525.234 156.651 525.54 158.144C526.694 163.762 528.481 169.885 528.953 175.52C529.186 178.3 528.786 181.247 528.942 184.042L527.687 176.165C526.053 170.7 525.077 164.969 523.495 159.507C521.391 152.238 518.846 144.691 515.32 138.032C516.651 137.354 518.339 139.603 519.406 140.422L516.545 134.081L509.185 123.384C510.465 123.091 510.802 124.105 511.568 124.743C516.147 128.557 519.064 132.804 522.132 137.695ZM467.256 82.4819C473.866 83.2993 485.628 86.9529 492.822 88.6181C495.867 89.3228 496.92 89.7326 499.639 90.663C505.925 92.8146 511.066 94.5944 515.997 99.5175C513.539 99.0012 511.766 97.2684 509.362 96.2765C506.086 94.9254 502.745 94.4273 499.639 93.3895C499.419 93.3161 499.011 93.484 498.957 93.3895C496.935 94.4487 505.418 96.487 502.138 96.697C498.389 94.9919 494.633 93.088 490.744 91.7184C482.993 88.9879 474.044 87.4229 466.915 83.5113C465.981 82.9988 465.818 82.3041 467.256 82.4819ZM411.027 77.0305C414.902 77.2782 419.128 76.6905 422.956 77.0305C426.148 77.314 431.077 78.4307 434.189 79.4297C436.919 80.3062 440.945 82.3233 443.578 83.6828C445.126 84.4821 444.87 84.7385 443.4 84.5464C438.17 83.8632 431.79 79.5327 425.843 80.2777L411.027 77.0305ZM378.768 137.813C377.352 138.415 357.893 146.488 357.853 144.171C366.235 141.001 374.469 137.021 382.076 132.26C390.273 127.131 394.002 122.614 403.529 119.291C405.279 118.681 406.72 117.517 408.301 116.565C409.129 116.066 410.443 116.131 410.342 115.209C407.744 114.711 405.856 116.194 403.621 116.999C402.485 117.408 401.394 117.591 402.858 116.235C409.757 112.815 414.914 106.992 422.615 105.659C425.114 104.248 427.794 102.6 430.793 102.927L430.108 100.892C447.44 96.848 462.321 94.7339 479.711 100.026C481.098 100.448 483.913 100.974 484.639 102.244C472.161 100.062 459.457 98.7393 447.153 102.251C451.637 104.533 457.759 100.124 462.146 103.276C458.063 104.202 453.893 105.136 449.88 106.34C444.419 107.979 439.304 109.935 434.202 112.475C431.73 113.706 429.172 115.243 426.705 116.565C423.236 118.422 419.987 121.703 415.802 122.011L421.03 118.048C422.68 117.265 424.424 116.775 426.023 115.883C426.889 115.4 427.593 114.134 428.068 113.838C426.99 113.964 425.638 114.092 424.66 114.52C420.836 116.194 415.507 118.787 411.709 120.655C409.003 121.985 406.225 123.381 403.529 124.744C395.382 128.865 387.513 134.096 378.768 137.813ZM351.733 211.993C361.74 217.85 373.819 221.907 382.399 229.708C379.923 229.577 377.496 228.025 375.374 226.856C368.669 223.161 360.772 218.572 354.251 214.563C353.163 213.894 351.326 213.595 351.733 211.993ZM347.137 216.239C351.323 217.356 381.957 233.944 385.761 236.918C388.152 238.787 391.942 245.012 391.942 247.778V259.706C390.296 256.883 389.1 257.907 387.891 257.312C376.999 251.949 365.375 245.539 354.096 239.927C352.985 239.374 352.878 239.421 351.726 239.257C353.228 243.018 354.107 244.841 351.385 248.807C350.711 245.259 352.275 242.829 351.044 239.257C349.941 236.058 349.666 235.163 348.83 231.588C347.646 226.518 346.605 221.349 344.92 216.412C345.12 215.711 346.57 216.088 347.137 216.239ZM275.787 157.4C280.089 163.757 285.106 169.68 290.117 175.44C298.689 185.295 307.435 194 318.112 201.642C326.538 207.672 334.673 209.625 338.116 220.49C340.54 228.143 340.08 243.007 335.253 249.709C334.58 250.643 334.033 251.763 332.644 251.523C332.323 251.178 335.333 244.821 333.663 243.34C332.879 243.313 329.711 253.984 326.509 251.189C328.328 249.07 330.07 246.222 329.91 243.35C328.467 241.666 325.945 250.339 323.779 249.475C324.865 247.088 327.185 243.634 324.798 241.306C323.907 242.645 322.206 249.934 320.04 249.478C319.123 249.285 319.057 248.383 319.354 247.456C319.798 246.069 323.333 241.15 320.701 239.946L316.342 246.995C311.05 248.448 314.582 246.152 315.44 244.18C315.996 242.902 315.577 241.377 315.733 240.931C315.838 240.628 318.058 240.534 316.958 239.27C316.837 239.132 313.726 237.714 313.558 237.896C314.494 239.349 309.788 246.509 308.787 245.389C308.11 244.632 312.875 238.022 309.114 236.538C307.56 235.924 308.35 238.101 307.883 239.061C307.831 239.169 306.442 240.595 306.064 240.617C306.358 237.003 303.819 238.247 302.277 237.582C299.342 236.316 295.014 234.7 292.466 233.422C291.07 232.723 288.228 228.846 286.637 231.086C284.558 234.012 288.192 236.988 281.521 235.164C282.441 232.544 283.993 230.992 284.569 228.054C285.148 225.094 284.723 223.592 283.555 220.859L279.606 230.87L276.75 233.119C277.568 227.564 280.327 222.565 279.466 216.767L274.485 229.159L271.301 231.759C270.725 226.366 275.657 221.236 274.67 215.781C274.425 214.425 272.852 213.13 273.332 211.314L267.942 227.209C267.373 228.077 265.433 228.665 265.157 227.315C265.009 226.589 268.849 216.319 269.177 213.625C269.381 211.955 269.459 209.181 269.25 207.549C269.129 206.611 268.742 205.41 267.889 206.537C268.021 208.657 267.455 210.671 266.858 212.669C266.189 214.906 263.474 223.945 262.519 225.229C261.862 226.114 260.329 225.262 259.793 225.735C259.63 225.879 257.982 228.717 257.643 229.32C248.302 245.937 243.332 258.577 230.065 273.348C229.177 274.337 221.316 281.377 222.22 282.196C227.599 281.981 232.931 279.567 238.026 278.606C253.945 275.602 275.951 274.83 292.013 276.818C298.925 277.673 310.179 281.859 316.588 280.798C318.383 280.501 330.477 272.435 330.908 271.314C331.469 269.849 329.182 269.79 333.316 268.216C333.78 266.879 332.354 267.338 332.134 267.072C331.41 266.192 335.018 261.787 335.72 260.4C339.117 253.685 341.694 246.528 342.211 238.945C343.013 227.194 341.137 210.77 329.915 204.485C332.425 201.285 337.057 203.889 339.035 206.62C353.416 226.471 346.11 261.525 327.811 276.348C325.234 278.436 314.473 285.831 311.807 286.246C310.305 286.48 307.218 286.484 305.703 286.29C304.763 286.171 303.664 285.876 304.692 284.933C305.603 284.098 314.482 285.288 315.6 282.207C305.464 281.31 295.397 278.916 285.26 278.117C272.085 277.079 258.941 277.614 245.825 279.565C236.063 281.017 226.451 283.791 216.764 285.601C226.054 275.324 235.003 265.503 242.536 253.783C263.304 221.476 275.837 180.808 266.529 142.467C269.979 147.175 272.516 152.567 275.787 157.4ZM117.253 212.34C120.161 166.218 156.872 96.2142 209.153 94.2394C223.293 93.7053 237.899 101.357 246.735 112.154C288.831 163.592 242.838 291.9 174.151 297.185C128.044 300.732 114.953 248.819 117.253 212.34Z" fill="white"/>
</g>
<defs>
<clipPath id="clip0_5_57">
<rect width="653.754" height="443.736" fill="white"/>
</clipPath>
</defs>
</svg>
